<svg width="147" height="29" viewBox="0 0 147 29" fill="none" xmlns="http://www.w3.org/2000/svg">
<g filter="url(#filter0_g_0_1)">
<rect x="87.66" y="4" width="55" height="21" fill="#991B1B"/>
</g>
<g filter="url(#filter1_n_0_1)">
<mask id="path-2-outside-1_0_1" maskUnits="userSpaceOnUse" x="-0.339996" y="7" width="141" height="14" fill="black">
<rect fill="white" x="-0.339996" y="7" width="141" height="14"/>
<path d="M6.116 9.6H8.492V18H6.116V9.6ZM2.876 18H0.500004V9.6H2.876V18ZM6.284 14.724H2.708V12.756H6.284V14.724ZM11.26 18V11.496H13.54V18H11.26ZM12.4 10.776C11.984 10.776 11.648 10.66 11.392 10.428C11.136 10.196 11.008 9.908 11.008 9.564C11.008 9.22 11.136 8.932 11.392 8.7C11.648 8.468 11.984 8.352 12.4 8.352C12.816 8.352 13.152 8.464 13.408 8.688C13.664 8.904 13.792 9.184 13.792 9.528C13.792 9.888 13.664 10.188 13.408 10.428C13.16 10.66 12.824 10.776 12.4 10.776ZM19.0537 18.108C18.4617 18.108 17.9217 17.972 17.4337 17.7C16.9537 17.42 16.5697 17.032 16.2817 16.536C15.9937 16.032 15.8497 15.432 15.8497 14.736C15.8497 14.048 15.9937 13.456 16.2817 12.96C16.5697 12.456 16.9537 12.068 17.4337 11.796C17.9217 11.524 18.4617 11.388 19.0537 11.388C19.6137 11.388 20.0857 11.508 20.4697 11.748C20.8617 11.988 21.1577 12.356 21.3577 12.852C21.5577 13.348 21.6577 13.976 21.6577 14.736C21.6577 15.512 21.5617 16.148 21.3697 16.644C21.1777 17.14 20.8897 17.508 20.5057 17.748C20.1217 17.988 19.6377 18.108 19.0537 18.108ZM19.5337 16.296C19.7897 16.296 20.0177 16.236 20.2177 16.116C20.4257 15.996 20.5897 15.82 20.7097 15.588C20.8297 15.348 20.8897 15.064 20.8897 14.736C20.8897 14.408 20.8297 14.132 20.7097 13.908C20.5897 13.676 20.4257 13.5 20.2177 13.38C20.0177 13.26 19.7897 13.2 19.5337 13.2C19.2697 13.2 19.0337 13.26 18.8257 13.38C18.6257 13.5 18.4657 13.676 18.3457 13.908C18.2257 14.132 18.1657 14.408 18.1657 14.736C18.1657 15.064 18.2257 15.348 18.3457 15.588C18.4657 15.82 18.6257 15.996 18.8257 16.116C19.0337 16.236 19.2697 16.296 19.5337 16.296ZM20.9617 18V16.884L20.9737 14.736L20.8537 12.588V9.096H23.1337V18H20.9617ZM25.8006 18V11.496H27.9726V13.392L27.6486 12.852C27.8406 12.364 28.1526 12 28.5846 11.76C29.0166 11.512 29.5406 11.388 30.1566 11.388V13.44C30.0526 13.424 29.9606 13.416 29.8806 13.416C29.8086 13.408 29.7286 13.404 29.6406 13.404C29.1766 13.404 28.8006 13.532 28.5126 13.788C28.2246 14.036 28.0806 14.444 28.0806 15.012V18H25.8006ZM35.8828 18V16.788L35.7268 16.488V14.256C35.7268 13.896 35.6148 13.62 35.3908 13.428C35.1748 13.228 34.8268 13.128 34.3468 13.128C34.0348 13.128 33.7188 13.18 33.3988 13.284C33.0788 13.38 32.8068 13.516 32.5828 13.692L31.8148 12.144C32.1828 11.904 32.6228 11.72 33.1348 11.592C33.6548 11.456 34.1708 11.388 34.6828 11.388C35.7388 11.388 36.5548 11.632 37.1308 12.12C37.7148 12.6 38.0068 13.356 38.0068 14.388V18H35.8828ZM33.9628 18.108C33.4428 18.108 33.0028 18.02 32.6428 17.844C32.2828 17.668 32.0068 17.428 31.8148 17.124C31.6308 16.82 31.5388 16.48 31.5388 16.104C31.5388 15.704 31.6388 15.36 31.8388 15.072C32.0468 14.776 32.3628 14.552 32.7868 14.4C33.2108 14.24 33.7588 14.16 34.4308 14.16H35.9668V15.348H34.7428C34.3748 15.348 34.1148 15.408 33.9628 15.528C33.8188 15.648 33.7468 15.808 33.7468 16.008C33.7468 16.208 33.8228 16.368 33.9748 16.488C34.1268 16.608 34.3348 16.668 34.5988 16.668C34.8468 16.668 35.0708 16.608 35.2708 16.488C35.4788 16.36 35.6308 16.168 35.7268 15.912L36.0388 16.752C35.9188 17.2 35.6828 17.54 35.3308 17.772C34.9868 17.996 34.5308 18.108 33.9628 18.108ZM43.3819 18.108C42.8539 18.108 42.3779 18.004 41.9539 17.796C41.5379 17.588 41.2099 17.264 40.9699 16.824C40.7379 16.376 40.6219 15.812 40.6219 15.132V11.496H42.9019V14.76C42.9019 15.264 42.9939 15.624 43.1779 15.84C43.3699 16.056 43.6379 16.164 43.9819 16.164C44.2059 16.164 44.4099 16.112 44.5939 16.008C44.7779 15.904 44.9259 15.74 45.0379 15.516C45.1499 15.284 45.2059 14.988 45.2059 14.628V11.496H47.4859V18H45.3139V16.164L45.7339 16.68C45.5099 17.16 45.1859 17.52 44.7619 17.76C44.3379 17.992 43.8779 18.108 43.3819 18.108ZM50.1545 18V9.096H52.4345V18H50.1545ZM55.1162 18V11.496H57.3962V18H55.1162ZM56.2562 10.776C55.8402 10.776 55.5042 10.66 55.2482 10.428C54.9922 10.196 54.8642 9.908 54.8642 9.564C54.8642 9.22 54.9922 8.932 55.2482 8.7C55.5042 8.468 55.8402 8.352 56.2562 8.352C56.6722 8.352 57.0082 8.464 57.2642 8.688C57.5202 8.904 57.6482 9.184 57.6482 9.528C57.6482 9.888 57.5202 10.188 57.2642 10.428C57.0162 10.66 56.6802 10.776 56.2562 10.776ZM64.3139 11.388C64.8179 11.388 65.2739 11.492 65.6819 11.7C66.0899 11.9 66.4099 12.212 66.6419 12.636C66.8819 13.06 67.0019 13.608 67.0019 14.28V18H64.7219V14.652C64.7219 14.188 64.6259 13.852 64.4339 13.644C64.2499 13.428 63.9899 13.32 63.6539 13.32C63.4139 13.32 63.1939 13.376 62.9939 13.488C62.7939 13.592 62.6379 13.756 62.5259 13.98C62.4139 14.204 62.3579 14.496 62.3579 14.856V18H60.0779V11.496H62.2499V13.344L61.8299 12.804C62.0779 12.332 62.4179 11.98 62.8499 11.748C63.2819 11.508 63.7699 11.388 64.3139 11.388ZM73.1234 18.108C72.3554 18.108 71.6834 17.964 71.1074 17.676C70.5394 17.38 70.0954 16.98 69.7754 16.476C69.4634 15.964 69.3074 15.384 69.3074 14.736C69.3074 14.088 69.4594 13.512 69.7634 13.008C70.0754 12.496 70.5034 12.1 71.0474 11.82C71.5914 11.532 72.2034 11.388 72.8834 11.388C73.5234 11.388 74.1074 11.52 74.6354 11.784C75.1634 12.04 75.5834 12.42 75.8954 12.924C76.2074 13.428 76.3634 14.04 76.3634 14.76C76.3634 14.84 76.3594 14.932 76.3514 15.036C76.3434 15.14 76.3354 15.236 76.3274 15.324H71.1794V14.124H75.1154L74.2514 14.46C74.2594 14.164 74.2034 13.908 74.0834 13.692C73.9714 13.476 73.8114 13.308 73.6034 13.188C73.4034 13.068 73.1674 13.008 72.8954 13.008C72.6234 13.008 72.3834 13.068 72.1754 13.188C71.9754 13.308 71.8194 13.48 71.7074 13.704C71.5954 13.92 71.5394 14.176 71.5394 14.472V14.82C71.5394 15.14 71.6034 15.416 71.7314 15.648C71.8674 15.88 72.0594 16.06 72.3074 16.188C72.5554 16.308 72.8514 16.368 73.1954 16.368C73.5154 16.368 73.7874 16.324 74.0114 16.236C74.2434 16.14 74.4714 15.996 74.6954 15.804L75.8954 17.052C75.5834 17.396 75.1994 17.66 74.7434 17.844C74.2874 18.02 73.7474 18.108 73.1234 18.108ZM72.8354 10.74C72.4914 10.74 72.2074 10.632 71.9834 10.416C71.7594 10.192 71.6474 9.904 71.6474 9.552C71.6474 9.208 71.7594 8.928 71.9834 8.712C72.2074 8.488 72.4914 8.376 72.8354 8.376C73.1794 8.376 73.4634 8.488 73.6874 8.712C73.9114 8.928 74.0234 9.208 74.0234 9.552C74.0234 9.904 73.9114 10.192 73.6874 10.416C73.4634 10.632 73.1794 10.74 72.8354 10.74ZM80.9787 18.108C80.4267 18.108 79.8867 18.044 79.3587 17.916C78.8387 17.788 78.4187 17.628 78.0987 17.436L78.7827 15.876C79.0867 16.06 79.4427 16.208 79.8507 16.32C80.2587 16.424 80.6587 16.476 81.0507 16.476C81.4347 16.476 81.6987 16.436 81.8427 16.356C81.9947 16.276 82.0707 16.168 82.0707 16.032C82.0707 15.904 81.9987 15.812 81.8547 15.756C81.7187 15.692 81.5347 15.644 81.3027 15.612C81.0787 15.58 80.8307 15.544 80.5587 15.504C80.2867 15.464 80.0107 15.412 79.7307 15.348C79.4587 15.276 79.2067 15.172 78.9747 15.036C78.7507 14.892 78.5707 14.7 78.4347 14.46C78.2987 14.22 78.2307 13.916 78.2307 13.548C78.2307 13.132 78.3507 12.764 78.5907 12.444C78.8387 12.116 79.1987 11.86 79.6707 11.676C80.1427 11.484 80.7187 11.388 81.3987 11.388C81.8547 11.388 82.3147 11.436 82.7787 11.532C83.2507 11.62 83.6467 11.756 83.9667 11.94L83.2827 13.488C82.9627 13.304 82.6427 13.18 82.3227 13.116C82.0027 13.044 81.6987 13.008 81.4107 13.008C81.0267 13.008 80.7547 13.052 80.5947 13.14C80.4427 13.228 80.3667 13.336 80.3667 13.464C80.3667 13.592 80.4347 13.692 80.5707 13.764C80.7067 13.828 80.8867 13.88 81.1107 13.92C81.3427 13.952 81.5947 13.988 81.8667 14.028C82.1387 14.06 82.4107 14.112 82.6827 14.184C82.9627 14.256 83.2147 14.364 83.4387 14.508C83.6707 14.644 83.8547 14.832 83.9907 15.072C84.1267 15.304 84.1947 15.604 84.1947 15.972C84.1947 16.372 84.0707 16.732 83.8227 17.052C83.5827 17.372 83.2227 17.628 82.7427 17.82C82.2707 18.012 81.6827 18.108 80.9787 18.108ZM94.2493 20.436C93.6253 20.436 93.0293 20.364 92.4613 20.22C91.9013 20.076 91.4213 19.864 91.0213 19.584L91.8493 17.988C92.1213 18.204 92.4573 18.372 92.8573 18.492C93.2653 18.62 93.6613 18.684 94.0453 18.684C94.6613 18.684 95.1053 18.548 95.3773 18.276C95.6493 18.012 95.7853 17.624 95.7853 17.112V16.344L95.9053 14.52L95.8933 12.684V11.496H98.0653V16.812C98.0653 18.044 97.7333 18.956 97.0693 19.548C96.4053 20.14 95.4653 20.436 94.2493 20.436ZM93.8533 17.664C93.2773 17.664 92.7453 17.536 92.2573 17.28C91.7773 17.016 91.3893 16.652 91.0933 16.188C90.8053 15.716 90.6613 15.16 90.6613 14.52C90.6613 13.88 90.8053 13.328 91.0933 12.864C91.3893 12.392 91.7773 12.028 92.2573 11.772C92.7453 11.516 93.2773 11.388 93.8533 11.388C94.4053 11.388 94.8773 11.5 95.2693 11.724C95.6613 11.94 95.9573 12.28 96.1573 12.744C96.3653 13.208 96.4693 13.8 96.4693 14.52C96.4693 15.24 96.3653 15.832 96.1573 16.296C95.9573 16.76 95.6613 17.104 95.2693 17.328C94.8773 17.552 94.4053 17.664 93.8533 17.664ZM94.3933 15.852C94.6653 15.852 94.9053 15.796 95.1133 15.684C95.3293 15.572 95.4973 15.416 95.6173 15.216C95.7453 15.016 95.8093 14.784 95.8093 14.52C95.8093 14.256 95.7453 14.024 95.6173 13.824C95.4973 13.624 95.3293 13.472 95.1133 13.368C94.9053 13.256 94.6653 13.2 94.3933 13.2C94.1213 13.2 93.8773 13.256 93.6613 13.368C93.4453 13.472 93.2733 13.624 93.1453 13.824C93.0253 14.024 92.9653 14.256 92.9653 14.52C92.9653 14.784 93.0253 15.016 93.1453 15.216C93.2733 15.416 93.4453 15.572 93.6613 15.684C93.8773 15.796 94.1213 15.852 94.3933 15.852ZM104.138 18.108C103.37 18.108 102.698 17.964 102.122 17.676C101.554 17.38 101.11 16.98 100.79 16.476C100.478 15.964 100.322 15.384 100.322 14.736C100.322 14.088 100.474 13.512 100.778 13.008C101.09 12.496 101.518 12.1 102.062 11.82C102.606 11.532 103.218 11.388 103.898 11.388C104.538 11.388 105.122 11.52 105.65 11.784C106.178 12.04 106.598 12.42 106.91 12.924C107.222 13.428 107.378 14.04 107.378 14.76C107.378 14.84 107.374 14.932 107.366 15.036C107.358 15.14 107.35 15.236 107.342 15.324H102.194V14.124H106.13L105.266 14.46C105.274 14.164 105.218 13.908 105.098 13.692C104.986 13.476 104.826 13.308 104.618 13.188C104.418 13.068 104.182 13.008 103.91 13.008C103.638 13.008 103.398 13.068 103.19 13.188C102.99 13.308 102.834 13.48 102.722 13.704C102.61 13.92 102.554 14.176 102.554 14.472V14.82C102.554 15.14 102.618 15.416 102.746 15.648C102.882 15.88 103.074 16.06 103.322 16.188C103.57 16.308 103.866 16.368 104.21 16.368C104.53 16.368 104.802 16.324 105.026 16.236C105.258 16.14 105.486 15.996 105.71 15.804L106.91 17.052C106.598 17.396 106.214 17.66 105.758 17.844C105.302 18.02 104.762 18.108 104.138 18.108ZM109.63 18V11.496H111.802V13.392L111.478 12.852C111.67 12.364 111.982 12 112.414 11.76C112.846 11.512 113.37 11.388 113.986 11.388V13.44C113.882 13.424 113.79 13.416 113.71 13.416C113.638 13.408 113.558 13.404 113.47 13.404C113.006 13.404 112.63 13.532 112.342 13.788C112.054 14.036 111.91 14.444 111.91 15.012V18H109.63ZM118.138 18L115.462 11.496H117.802L119.938 16.932H118.762L121.006 11.496H123.178L120.49 18H118.138ZM128.199 18.108C127.431 18.108 126.759 17.964 126.183 17.676C125.615 17.38 125.171 16.98 124.851 16.476C124.539 15.964 124.383 15.384 124.383 14.736C124.383 14.088 124.535 13.512 124.839 13.008C125.151 12.496 125.579 12.1 126.123 11.82C126.667 11.532 127.279 11.388 127.959 11.388C128.599 11.388 129.183 11.52 129.711 11.784C130.239 12.04 130.659 12.42 130.971 12.924C131.283 13.428 131.439 14.04 131.439 14.76C131.439 14.84 131.435 14.932 131.427 15.036C131.419 15.14 131.411 15.236 131.403 15.324H126.255V14.124H130.191L129.327 14.46C129.335 14.164 129.279 13.908 129.159 13.692C129.047 13.476 128.887 13.308 128.679 13.188C128.479 13.068 128.243 13.008 127.971 13.008C127.699 13.008 127.459 13.068 127.251 13.188C127.051 13.308 126.895 13.48 126.783 13.704C126.671 13.92 126.615 14.176 126.615 14.472V14.82C126.615 15.14 126.679 15.416 126.807 15.648C126.943 15.88 127.135 16.06 127.383 16.188C127.631 16.308 127.927 16.368 128.271 16.368C128.591 16.368 128.863 16.324 129.087 16.236C129.319 16.14 129.547 15.996 129.771 15.804L130.971 17.052C130.659 17.396 130.275 17.66 129.819 17.844C129.363 18.02 128.823 18.108 128.199 18.108ZM127.911 10.74C127.567 10.74 127.283 10.632 127.059 10.416C126.835 10.192 126.723 9.904 126.723 9.552C126.723 9.208 126.835 8.928 127.059 8.712C127.283 8.488 127.567 8.376 127.911 8.376C128.255 8.376 128.539 8.488 128.763 8.712C128.987 8.928 129.099 9.208 129.099 9.552C129.099 9.904 128.987 10.192 128.763 10.416C128.539 10.632 128.255 10.74 127.911 10.74ZM136.054 18.108C135.502 18.108 134.962 18.044 134.434 17.916C133.914 17.788 133.494 17.628 133.174 17.436L133.858 15.876C134.162 16.06 134.518 16.208 134.926 16.32C135.334 16.424 135.734 16.476 136.126 16.476C136.51 16.476 136.774 16.436 136.918 16.356C137.07 16.276 137.146 16.168 137.146 16.032C137.146 15.904 137.074 15.812 136.93 15.756C136.794 15.692 136.61 15.644 136.378 15.612C136.154 15.58 135.906 15.544 135.634 15.504C135.362 15.464 135.086 15.412 134.806 15.348C134.534 15.276 134.282 15.172 134.05 15.036C133.826 14.892 133.646 14.7 133.51 14.46C133.374 14.22 133.306 13.916 133.306 13.548C133.306 13.132 133.426 12.764 133.666 12.444C133.914 12.116 134.274 11.86 134.746 11.676C135.218 11.484 135.794 11.388 136.474 11.388C136.93 11.388 137.39 11.436 137.854 11.532C138.326 11.62 138.722 11.756 139.042 11.94L138.358 13.488C138.038 13.304 137.718 13.18 137.398 13.116C137.078 13.044 136.774 13.008 136.486 13.008C136.102 13.008 135.83 13.052 135.67 13.14C135.518 13.228 135.442 13.336 135.442 13.464C135.442 13.592 135.51 13.692 135.646 13.764C135.782 13.828 135.962 13.88 136.186 13.92C136.418 13.952 136.67 13.988 136.942 14.028C137.214 14.06 137.486 14.112 137.758 14.184C138.038 14.256 138.29 14.364 138.514 14.508C138.746 14.644 138.93 14.832 139.066 15.072C139.202 15.304 139.27 15.604 139.27 15.972C139.27 16.372 139.146 16.732 138.898 17.052C138.658 17.372 138.298 17.628 137.818 17.82C137.346 18.012 136.758 18.108 136.054 18.108Z"/>
</mask>
<path d="M6.116 9.6H8.492V18H6.116V9.6ZM2.876 18H0.500004V9.6H2.876V18ZM6.284 14.724H2.708V12.756H6.284V14.724ZM11.26 18V11.496H13.54V18H11.26ZM12.4 10.776C11.984 10.776 11.648 10.66 11.392 10.428C11.136 10.196 11.008 9.908 11.008 9.564C11.008 9.22 11.136 8.932 11.392 8.7C11.648 8.468 11.984 8.352 12.4 8.352C12.816 8.352 13.152 8.464 13.408 8.688C13.664 8.904 13.792 9.184 13.792 9.528C13.792 9.888 13.664 10.188 13.408 10.428C13.16 10.66 12.824 10.776 12.4 10.776ZM19.0537 18.108C18.4617 18.108 17.9217 17.972 17.4337 17.7C16.9537 17.42 16.5697 17.032 16.2817 16.536C15.9937 16.032 15.8497 15.432 15.8497 14.736C15.8497 14.048 15.9937 13.456 16.2817 12.96C16.5697 12.456 16.9537 12.068 17.4337 11.796C17.9217 11.524 18.4617 11.388 19.0537 11.388C19.6137 11.388 20.0857 11.508 20.4697 11.748C20.8617 11.988 21.1577 12.356 21.3577 12.852C21.5577 13.348 21.6577 13.976 21.6577 14.736C21.6577 15.512 21.5617 16.148 21.3697 16.644C21.1777 17.14 20.8897 17.508 20.5057 17.748C20.1217 17.988 19.6377 18.108 19.0537 18.108ZM19.5337 16.296C19.7897 16.296 20.0177 16.236 20.2177 16.116C20.4257 15.996 20.5897 15.82 20.7097 15.588C20.8297 15.348 20.8897 15.064 20.8897 14.736C20.8897 14.408 20.8297 14.132 20.7097 13.908C20.5897 13.676 20.4257 13.5 20.2177 13.38C20.0177 13.26 19.7897 13.2 19.5337 13.2C19.2697 13.2 19.0337 13.26 18.8257 13.38C18.6257 13.5 18.4657 13.676 18.3457 13.908C18.2257 14.132 18.1657 14.408 18.1657 14.736C18.1657 15.064 18.2257 15.348 18.3457 15.588C18.4657 15.82 18.6257 15.996 18.8257 16.116C19.0337 16.236 19.2697 16.296 19.5337 16.296ZM20.9617 18V16.884L20.9737 14.736L20.8537 12.588V9.096H23.1337V18H20.9617ZM25.8006 18V11.496H27.9726V13.392L27.6486 12.852C27.8406 12.364 28.1526 12 28.5846 11.76C29.0166 11.512 29.5406 11.388 30.1566 11.388V13.44C30.0526 13.424 29.9606 13.416 29.8806 13.416C29.8086 13.408 29.7286 13.404 29.6406 13.404C29.1766 13.404 28.8006 13.532 28.5126 13.788C28.2246 14.036 28.0806 14.444 28.0806 15.012V18H25.8006ZM35.8828 18V16.788L35.7268 16.488V14.256C35.7268 13.896 35.6148 13.62 35.3908 13.428C35.1748 13.228 34.8268 13.128 34.3468 13.128C34.0348 13.128 33.7188 13.18 33.3988 13.284C33.0788 13.38 32.8068 13.516 32.5828 13.692L31.8148 12.144C32.1828 11.904 32.6228 11.72 33.1348 11.592C33.6548 11.456 34.1708 11.388 34.6828 11.388C35.7388 11.388 36.5548 11.632 37.1308 12.12C37.7148 12.6 38.0068 13.356 38.0068 14.388V18H35.8828ZM33.9628 18.108C33.4428 18.108 33.0028 18.02 32.6428 17.844C32.2828 17.668 32.0068 17.428 31.8148 17.124C31.6308 16.82 31.5388 16.48 31.5388 16.104C31.5388 15.704 31.6388 15.36 31.8388 15.072C32.0468 14.776 32.3628 14.552 32.7868 14.4C33.2108 14.24 33.7588 14.16 34.4308 14.16H35.9668V15.348H34.7428C34.3748 15.348 34.1148 15.408 33.9628 15.528C33.8188 15.648 33.7468 15.808 33.7468 16.008C33.7468 16.208 33.8228 16.368 33.9748 16.488C34.1268 16.608 34.3348 16.668 34.5988 16.668C34.8468 16.668 35.0708 16.608 35.2708 16.488C35.4788 16.36 35.6308 16.168 35.7268 15.912L36.0388 16.752C35.9188 17.2 35.6828 17.54 35.3308 17.772C34.9868 17.996 34.5308 18.108 33.9628 18.108ZM43.3819 18.108C42.8539 18.108 42.3779 18.004 41.9539 17.796C41.5379 17.588 41.2099 17.264 40.9699 16.824C40.7379 16.376 40.6219 15.812 40.6219 15.132V11.496H42.9019V14.76C42.9019 15.264 42.9939 15.624 43.1779 15.84C43.3699 16.056 43.6379 16.164 43.9819 16.164C44.2059 16.164 44.4099 16.112 44.5939 16.008C44.7779 15.904 44.9259 15.74 45.0379 15.516C45.1499 15.284 45.2059 14.988 45.2059 14.628V11.496H47.4859V18H45.3139V16.164L45.7339 16.68C45.5099 17.16 45.1859 17.52 44.7619 17.76C44.3379 17.992 43.8779 18.108 43.3819 18.108ZM50.1545 18V9.096H52.4345V18H50.1545ZM55.1162 18V11.496H57.3962V18H55.1162ZM56.2562 10.776C55.8402 10.776 55.5042 10.66 55.2482 10.428C54.9922 10.196 54.8642 9.908 54.8642 9.564C54.8642 9.22 54.9922 8.932 55.2482 8.7C55.5042 8.468 55.8402 8.352 56.2562 8.352C56.6722 8.352 57.0082 8.464 57.2642 8.688C57.5202 8.904 57.6482 9.184 57.6482 9.528C57.6482 9.888 57.5202 10.188 57.2642 10.428C57.0162 10.66 56.6802 10.776 56.2562 10.776ZM64.3139 11.388C64.8179 11.388 65.2739 11.492 65.6819 11.7C66.0899 11.9 66.4099 12.212 66.6419 12.636C66.8819 13.06 67.0019 13.608 67.0019 14.28V18H64.7219V14.652C64.7219 14.188 64.6259 13.852 64.4339 13.644C64.2499 13.428 63.9899 13.32 63.6539 13.32C63.4139 13.32 63.1939 13.376 62.9939 13.488C62.7939 13.592 62.6379 13.756 62.5259 13.98C62.4139 14.204 62.3579 14.496 62.3579 14.856V18H60.0779V11.496H62.2499V13.344L61.8299 12.804C62.0779 12.332 62.4179 11.98 62.8499 11.748C63.2819 11.508 63.7699 11.388 64.3139 11.388ZM73.1234 18.108C72.3554 18.108 71.6834 17.964 71.1074 17.676C70.5394 17.38 70.0954 16.98 69.7754 16.476C69.4634 15.964 69.3074 15.384 69.3074 14.736C69.3074 14.088 69.4594 13.512 69.7634 13.008C70.0754 12.496 70.5034 12.1 71.0474 11.82C71.5914 11.532 72.2034 11.388 72.8834 11.388C73.5234 11.388 74.1074 11.52 74.6354 11.784C75.1634 12.04 75.5834 12.42 75.8954 12.924C76.2074 13.428 76.3634 14.04 76.3634 14.76C76.3634 14.84 76.3594 14.932 76.3514 15.036C76.3434 15.14 76.3354 15.236 76.3274 15.324H71.1794V14.124H75.1154L74.2514 14.46C74.2594 14.164 74.2034 13.908 74.0834 13.692C73.9714 13.476 73.8114 13.308 73.6034 13.188C73.4034 13.068 73.1674 13.008 72.8954 13.008C72.6234 13.008 72.3834 13.068 72.1754 13.188C71.9754 13.308 71.8194 13.48 71.7074 13.704C71.5954 13.92 71.5394 14.176 71.5394 14.472V14.82C71.5394 15.14 71.6034 15.416 71.7314 15.648C71.8674 15.88 72.0594 16.06 72.3074 16.188C72.5554 16.308 72.8514 16.368 73.1954 16.368C73.5154 16.368 73.7874 16.324 74.0114 16.236C74.2434 16.14 74.4714 15.996 74.6954 15.804L75.8954 17.052C75.5834 17.396 75.1994 17.66 74.7434 17.844C74.2874 18.02 73.7474 18.108 73.1234 18.108ZM72.8354 10.74C72.4914 10.74 72.2074 10.632 71.9834 10.416C71.7594 10.192 71.6474 9.904 71.6474 9.552C71.6474 9.208 71.7594 8.928 71.9834 8.712C72.2074 8.488 72.4914 8.376 72.8354 8.376C73.1794 8.376 73.4634 8.488 73.6874 8.712C73.9114 8.928 74.0234 9.208 74.0234 9.552C74.0234 9.904 73.9114 10.192 73.6874 10.416C73.4634 10.632 73.1794 10.74 72.8354 10.74ZM80.9787 18.108C80.4267 18.108 79.8867 18.044 79.3587 17.916C78.8387 17.788 78.4187 17.628 78.0987 17.436L78.7827 15.876C79.0867 16.06 79.4427 16.208 79.8507 16.32C80.2587 16.424 80.6587 16.476 81.0507 16.476C81.4347 16.476 81.6987 16.436 81.8427 16.356C81.9947 16.276 82.0707 16.168 82.0707 16.032C82.0707 15.904 81.9987 15.812 81.8547 15.756C81.7187 15.692 81.5347 15.644 81.3027 15.612C81.0787 15.58 80.8307 15.544 80.5587 15.504C80.2867 15.464 80.0107 15.412 79.7307 15.348C79.4587 15.276 79.2067 15.172 78.9747 15.036C78.7507 14.892 78.5707 14.7 78.4347 14.46C78.2987 14.22 78.2307 13.916 78.2307 13.548C78.2307 13.132 78.3507 12.764 78.5907 12.444C78.8387 12.116 79.1987 11.86 79.6707 11.676C80.1427 11.484 80.7187 11.388 81.3987 11.388C81.8547 11.388 82.3147 11.436 82.7787 11.532C83.2507 11.62 83.6467 11.756 83.9667 11.94L83.2827 13.488C82.9627 13.304 82.6427 13.18 82.3227 13.116C82.0027 13.044 81.6987 13.008 81.4107 13.008C81.0267 13.008 80.7547 13.052 80.5947 13.14C80.4427 13.228 80.3667 13.336 80.3667 13.464C80.3667 13.592 80.4347 13.692 80.5707 13.764C80.7067 13.828 80.8867 13.88 81.1107 13.92C81.3427 13.952 81.5947 13.988 81.8667 14.028C82.1387 14.06 82.4107 14.112 82.6827 14.184C82.9627 14.256 83.2147 14.364 83.4387 14.508C83.6707 14.644 83.8547 14.832 83.9907 15.072C84.1267 15.304 84.1947 15.604 84.1947 15.972C84.1947 16.372 84.0707 16.732 83.8227 17.052C83.5827 17.372 83.2227 17.628 82.7427 17.82C82.2707 18.012 81.6827 18.108 80.9787 18.108ZM94.2493 20.436C93.6253 20.436 93.0293 20.364 92.4613 20.22C91.9013 20.076 91.4213 19.864 91.0213 19.584L91.8493 17.988C92.1213 18.204 92.4573 18.372 92.8573 18.492C93.2653 18.62 93.6613 18.684 94.0453 18.684C94.6613 18.684 95.1053 18.548 95.3773 18.276C95.6493 18.012 95.7853 17.624 95.7853 17.112V16.344L95.9053 14.52L95.8933 12.684V11.496H98.0653V16.812C98.0653 18.044 97.7333 18.956 97.0693 19.548C96.4053 20.14 95.4653 20.436 94.2493 20.436ZM93.8533 17.664C93.2773 17.664 92.7453 17.536 92.2573 17.28C91.7773 17.016 91.3893 16.652 91.0933 16.188C90.8053 15.716 90.6613 15.16 90.6613 14.52C90.6613 13.88 90.8053 13.328 91.0933 12.864C91.3893 12.392 91.7773 12.028 92.2573 11.772C92.7453 11.516 93.2773 11.388 93.8533 11.388C94.4053 11.388 94.8773 11.5 95.2693 11.724C95.6613 11.94 95.9573 12.28 96.1573 12.744C96.3653 13.208 96.4693 13.8 96.4693 14.52C96.4693 15.24 96.3653 15.832 96.1573 16.296C95.9573 16.76 95.6613 17.104 95.2693 17.328C94.8773 17.552 94.4053 17.664 93.8533 17.664ZM94.3933 15.852C94.6653 15.852 94.9053 15.796 95.1133 15.684C95.3293 15.572 95.4973 15.416 95.6173 15.216C95.7453 15.016 95.8093 14.784 95.8093 14.52C95.8093 14.256 95.7453 14.024 95.6173 13.824C95.4973 13.624 95.3293 13.472 95.1133 13.368C94.9053 13.256 94.6653 13.2 94.3933 13.2C94.1213 13.2 93.8773 13.256 93.6613 13.368C93.4453 13.472 93.2733 13.624 93.1453 13.824C93.0253 14.024 92.9653 14.256 92.9653 14.52C92.9653 14.784 93.0253 15.016 93.1453 15.216C93.2733 15.416 93.4453 15.572 93.6613 15.684C93.8773 15.796 94.1213 15.852 94.3933 15.852ZM104.138 18.108C103.37 18.108 102.698 17.964 102.122 17.676C101.554 17.38 101.11 16.98 100.79 16.476C100.478 15.964 100.322 15.384 100.322 14.736C100.322 14.088 100.474 13.512 100.778 13.008C101.09 12.496 101.518 12.1 102.062 11.82C102.606 11.532 103.218 11.388 103.898 11.388C104.538 11.388 105.122 11.52 105.65 11.784C106.178 12.04 106.598 12.42 106.91 12.924C107.222 13.428 107.378 14.04 107.378 14.76C107.378 14.84 107.374 14.932 107.366 15.036C107.358 15.14 107.35 15.236 107.342 15.324H102.194V14.124H106.13L105.266 14.46C105.274 14.164 105.218 13.908 105.098 13.692C104.986 13.476 104.826 13.308 104.618 13.188C104.418 13.068 104.182 13.008 103.91 13.008C103.638 13.008 103.398 13.068 103.19 13.188C102.99 13.308 102.834 13.48 102.722 13.704C102.61 13.92 102.554 14.176 102.554 14.472V14.82C102.554 15.14 102.618 15.416 102.746 15.648C102.882 15.88 103.074 16.06 103.322 16.188C103.57 16.308 103.866 16.368 104.21 16.368C104.53 16.368 104.802 16.324 105.026 16.236C105.258 16.14 105.486 15.996 105.71 15.804L106.91 17.052C106.598 17.396 106.214 17.66 105.758 17.844C105.302 18.02 104.762 18.108 104.138 18.108ZM109.63 18V11.496H111.802V13.392L111.478 12.852C111.67 12.364 111.982 12 112.414 11.76C112.846 11.512 113.37 11.388 113.986 11.388V13.44C113.882 13.424 113.79 13.416 113.71 13.416C113.638 13.408 113.558 13.404 113.47 13.404C113.006 13.404 112.63 13.532 112.342 13.788C112.054 14.036 111.91 14.444 111.91 15.012V18H109.63ZM118.138 18L115.462 11.496H117.802L119.938 16.932H118.762L121.006 11.496H123.178L120.49 18H118.138ZM128.199 18.108C127.431 18.108 126.759 17.964 126.183 17.676C125.615 17.38 125.171 16.98 124.851 16.476C124.539 15.964 124.383 15.384 124.383 14.736C124.383 14.088 124.535 13.512 124.839 13.008C125.151 12.496 125.579 12.1 126.123 11.82C126.667 11.532 127.279 11.388 127.959 11.388C128.599 11.388 129.183 11.52 129.711 11.784C130.239 12.04 130.659 12.42 130.971 12.924C131.283 13.428 131.439 14.04 131.439 14.76C131.439 14.84 131.435 14.932 131.427 15.036C131.419 15.14 131.411 15.236 131.403 15.324H126.255V14.124H130.191L129.327 14.46C129.335 14.164 129.279 13.908 129.159 13.692C129.047 13.476 128.887 13.308 128.679 13.188C128.479 13.068 128.243 13.008 127.971 13.008C127.699 13.008 127.459 13.068 127.251 13.188C127.051 13.308 126.895 13.48 126.783 13.704C126.671 13.92 126.615 14.176 126.615 14.472V14.82C126.615 15.14 126.679 15.416 126.807 15.648C126.943 15.88 127.135 16.06 127.383 16.188C127.631 16.308 127.927 16.368 128.271 16.368C128.591 16.368 128.863 16.324 129.087 16.236C129.319 16.14 129.547 15.996 129.771 15.804L130.971 17.052C130.659 17.396 130.275 17.66 129.819 17.844C129.363 18.02 128.823 18.108 128.199 18.108ZM127.911 10.74C127.567 10.74 127.283 10.632 127.059 10.416C126.835 10.192 126.723 9.904 126.723 9.552C126.723 9.208 126.835 8.928 127.059 8.712C127.283 8.488 127.567 8.376 127.911 8.376C128.255 8.376 128.539 8.488 128.763 8.712C128.987 8.928 129.099 9.208 129.099 9.552C129.099 9.904 128.987 10.192 128.763 10.416C128.539 10.632 128.255 10.74 127.911 10.74ZM136.054 18.108C135.502 18.108 134.962 18.044 134.434 17.916C133.914 17.788 133.494 17.628 133.174 17.436L133.858 15.876C134.162 16.06 134.518 16.208 134.926 16.32C135.334 16.424 135.734 16.476 136.126 16.476C136.51 16.476 136.774 16.436 136.918 16.356C137.07 16.276 137.146 16.168 137.146 16.032C137.146 15.904 137.074 15.812 136.93 15.756C136.794 15.692 136.61 15.644 136.378 15.612C136.154 15.58 135.906 15.544 135.634 15.504C135.362 15.464 135.086 15.412 134.806 15.348C134.534 15.276 134.282 15.172 134.05 15.036C133.826 14.892 133.646 14.7 133.51 14.46C133.374 14.22 133.306 13.916 133.306 13.548C133.306 13.132 133.426 12.764 133.666 12.444C133.914 12.116 134.274 11.86 134.746 11.676C135.218 11.484 135.794 11.388 136.474 11.388C136.93 11.388 137.39 11.436 137.854 11.532C138.326 11.62 138.722 11.756 139.042 11.94L138.358 13.488C138.038 13.304 137.718 13.18 137.398 13.116C137.078 13.044 136.774 13.008 136.486 13.008C136.102 13.008 135.83 13.052 135.67 13.14C135.518 13.228 135.442 13.336 135.442 13.464C135.442 13.592 135.51 13.692 135.646 13.764C135.782 13.828 135.962 13.88 136.186 13.92C136.418 13.952 136.67 13.988 136.942 14.028C137.214 14.06 137.486 14.112 137.758 14.184C138.038 14.256 138.29 14.364 138.514 14.508C138.746 14.644 138.93 14.832 139.066 15.072C139.202 15.304 139.27 15.604 139.27 15.972C139.27 16.372 139.146 16.732 138.898 17.052C138.658 17.372 138.298 17.628 137.818 17.82C137.346 18.012 136.758 18.108 136.054 18.108Z" fill="white"/>
<path d="M6.116 9.6V9.1H5.616V9.6H6.116ZM8.492 9.6H8.992V9.1H8.492V9.6ZM8.492 18V18.5H8.992V18H8.492ZM6.116 18H5.616V18.5H6.116V18ZM2.876 18V18.5H3.376V18H2.876ZM0.500004 18H3.66569e-06V18.5H0.500004V18ZM0.500004 9.6V9.1H3.66569e-06V9.6H0.500004ZM2.876 9.6H3.376V9.1H2.876V9.6ZM6.284 14.724V15.224H6.784V14.724H6.284ZM2.708 14.724H2.208V15.224H2.708V14.724ZM2.708 12.756V12.256H2.208V12.756H2.708ZM6.284 12.756H6.784V12.256H6.284V12.756ZM6.116 9.6V10.1H8.492V9.6V9.1H6.116V9.6ZM8.492 9.6H7.992V18H8.492H8.992V9.6H8.492ZM8.492 18V17.5H6.116V18V18.5H8.492V18ZM6.116 18H6.616V9.6H6.116H5.616V18H6.116ZM2.876 18V17.5H0.500004V18V18.5H2.876V18ZM0.500004 18H1V9.6H0.500004H3.66569e-06V18H0.500004ZM0.500004 9.6V10.1H2.876V9.6V9.1H0.500004V9.6ZM2.876 9.6H2.376V18H2.876H3.376V9.6H2.876ZM6.284 14.724V14.224H2.708V14.724V15.224H6.284V14.724ZM2.708 14.724H3.208V12.756H2.708H2.208V14.724H2.708ZM2.708 12.756V13.256H6.284V12.756V12.256H2.708V12.756ZM6.284 12.756H5.784V14.724H6.284H6.784V12.756H6.284ZM11.26 18H10.76V18.5H11.26V18ZM11.26 11.496V10.996H10.76V11.496H11.26ZM13.54 11.496H14.04V10.996H13.54V11.496ZM13.54 18V18.5H14.04V18H13.54ZM11.392 10.428L11.7277 10.0575V10.0575L11.392 10.428ZM11.392 8.7L11.7277 9.07049V9.07049L11.392 8.7ZM13.408 8.688L13.0787 9.06435L13.0855 9.07015L13.408 8.688ZM13.408 10.428L13.7496 10.7931L13.7499 10.7928L13.408 10.428ZM11.26 18H11.76V11.496H11.26H10.76V18H11.26ZM11.26 11.496V11.996H13.54V11.496V10.996H11.26V11.496ZM13.54 11.496H13.04V18H13.54H14.04V11.496H13.54ZM13.54 18V17.5H11.26V18V18.5H13.54V18ZM12.4 10.776V10.276C12.0814 10.276 11.8737 10.1898 11.7277 10.0575L11.392 10.428L11.0562 10.7985C11.4222 11.1302 11.8865 11.276 12.4 11.276V10.776ZM11.392 10.428L11.7277 10.0575C11.5758 9.91982 11.508 9.76616 11.508 9.564H11.008H10.508C10.508 10.0498 10.6961 10.4722 11.0562 10.7985L11.392 10.428ZM11.008 9.564H11.508C11.508 9.36184 11.5758 9.20818 11.7277 9.07049L11.392 8.7L11.0562 8.32951C10.6961 8.65582 10.508 9.07816 10.508 9.564H11.008ZM11.392 8.7L11.7277 9.07049C11.8737 8.93817 12.0814 8.852 12.4 8.852V8.352V7.852C11.8865 7.852 11.4222 7.99783 11.0562 8.32951L11.392 8.7ZM12.4 8.352V8.852C12.723 8.852 12.933 8.93681 13.0787 9.06429L13.408 8.688L13.7372 8.31171C13.3709 7.99119 12.9089 7.852 12.4 7.852V8.352ZM13.408 8.688L13.0855 9.07015C13.2255 9.18823 13.292 9.32674 13.292 9.528H13.792H14.292C14.292 9.04126 14.1025 8.61977 13.7304 8.30585L13.408 8.688ZM13.792 9.528H13.292C13.292 9.75385 13.2183 9.92049 13.066 10.0632L13.408 10.428L13.7499 10.7928C14.1097 10.4555 14.292 10.0222 14.292 9.528H13.792ZM13.408 10.428L13.0664 10.0629C12.9326 10.188 12.7301 10.276 12.4 10.276V10.776V11.276C12.9178 11.276 13.3874 11.132 13.7496 10.7931L13.408 10.428ZM17.4337 17.7L17.1817 18.132L17.1903 18.1367L17.4337 17.7ZM16.2817 16.536L15.8476 16.7841L15.8493 16.7871L16.2817 16.536ZM16.2817 12.96L16.7141 13.2111L16.7158 13.2081L16.2817 12.96ZM17.4337 11.796L17.1903 11.3592L17.1872 11.361L17.4337 11.796ZM20.4697 11.748L20.2047 12.172L20.2086 12.1744L20.4697 11.748ZM21.3577 12.852L21.8214 12.665V12.665L21.3577 12.852ZM21.3697 16.644L21.836 16.8245V16.8245L21.3697 16.644ZM20.5057 17.748L20.2407 17.324L20.5057 17.748ZM20.2177 16.116L19.9678 15.6828L19.9604 15.6873L20.2177 16.116ZM20.7097 15.588L21.1538 15.8177L21.1569 15.8116L20.7097 15.588ZM20.7097 13.908L20.2655 14.1377L20.269 14.1441L20.7097 13.908ZM20.2177 13.38L19.9604 13.8088L19.9678 13.8131L20.2177 13.38ZM18.8257 13.38L18.5758 12.9468L18.5684 12.9513L18.8257 13.38ZM18.3457 13.908L18.7865 14.1441L18.7898 14.1377L18.3457 13.908ZM18.3457 15.588L17.8984 15.8116L17.9016 15.8177L18.3457 15.588ZM18.8257 16.116L18.5684 16.5448L18.5758 16.5491L18.8257 16.116ZM20.9617 18H20.4617V18.5H20.9617V18ZM20.9617 16.884L20.4617 16.8812V16.884H20.9617ZM20.9737 14.736L21.4737 14.7388L21.4738 14.7234L21.4729 14.7081L20.9737 14.736ZM20.8537 12.588H20.3537V12.602L20.3545 12.6159L20.8537 12.588ZM20.8537 9.096V8.596H20.3537V9.096H20.8537ZM23.1337 9.096H23.6337V8.596H23.1337V9.096ZM23.1337 18V18.5H23.6337V18H23.1337ZM19.0537 18.108V17.608C18.5416 17.608 18.0862 17.4913 17.6771 17.2633L17.4337 17.7L17.1903 18.1367C17.7572 18.4527 18.3817 18.608 19.0537 18.608V18.108ZM17.4337 17.7L17.6856 17.2681C17.2829 17.0332 16.9601 16.7086 16.7141 16.2849L16.2817 16.536L15.8493 16.7871C16.1793 17.3554 16.6245 17.8068 17.1818 18.1319L17.4337 17.7ZM16.2817 16.536L16.7158 16.2879C16.4788 15.8732 16.3497 15.3623 16.3497 14.736H15.8497H15.3497C15.3497 15.5017 15.5085 16.1908 15.8476 16.7841L16.2817 16.536ZM15.8497 14.736H16.3497C16.3497 14.1186 16.4784 13.6169 16.7141 13.2111L16.2817 12.96L15.8493 12.7089C15.5089 13.2951 15.3497 13.9774 15.3497 14.736H15.8497ZM16.2817 12.96L16.7158 13.2081C16.9616 12.7779 17.2825 12.4563 17.6802 12.231L17.4337 11.796L17.1872 11.361C16.6248 11.6797 16.1777 12.1341 15.8476 12.7119L16.2817 12.96ZM17.4337 11.796L17.6771 12.2327C18.0862 12.0047 18.5416 11.888 19.0537 11.888V11.388V10.888C18.3817 10.888 17.7572 11.0433 17.1903 11.3593L17.4337 11.796ZM19.0537 11.388V11.888C19.5421 11.888 19.9171 11.9922 20.2047 12.172L20.4697 11.748L20.7347 11.324C20.2543 11.0238 19.6853 10.888 19.0537 10.888V11.388ZM20.4697 11.748L20.2086 12.1744C20.4947 12.3496 20.7273 12.6256 20.894 13.039L21.3577 12.852L21.8214 12.665C21.5881 12.0864 21.2286 11.6264 20.7308 11.3216L20.4697 11.748ZM21.3577 12.852L20.894 13.039C21.0622 13.4562 21.1577 14.0152 21.1577 14.736H21.6577H22.1577C22.1577 13.9368 22.0532 13.2398 21.8214 12.665L21.3577 12.852ZM21.6577 14.736H21.1577C21.1577 15.4761 21.0654 16.0451 20.9034 16.4635L21.3697 16.644L21.836 16.8245C22.058 16.2509 22.1577 15.5479 22.1577 14.736H21.6577ZM21.3697 16.644L20.9034 16.4635C20.7434 16.8769 20.5178 17.1508 20.2407 17.324L20.5057 17.748L20.7707 18.172C21.2616 17.8652 21.612 17.4031 21.836 16.8245L21.3697 16.644ZM20.5057 17.748L20.2407 17.324C19.9561 17.5019 19.5707 17.608 19.0537 17.608V18.108V18.608C19.7047 18.608 20.2872 18.4742 20.7707 18.172L20.5057 17.748ZM19.5337 16.296V16.796C19.8712 16.796 20.1898 16.7159 20.4749 16.5447L20.2177 16.116L19.9604 15.6873C19.8456 15.7561 19.7082 15.796 19.5337 15.796V16.296ZM20.2177 16.116L20.4676 16.5491C20.7657 16.3771 20.9939 16.1269 21.1538 15.8177L20.7097 15.588L20.2656 15.3583C20.1855 15.5131 20.0857 15.6149 19.9678 15.6829L20.2177 16.116ZM20.7097 15.588L21.1569 15.8116C21.3185 15.4884 21.3897 15.1246 21.3897 14.736H20.8897H20.3897C20.3897 15.0034 20.3409 15.2076 20.2625 15.3644L20.7097 15.588ZM20.8897 14.736H21.3897C21.3897 14.3489 21.319 13.9866 21.1504 13.6719L20.7097 13.908L20.269 14.1441C20.3404 14.2774 20.3897 14.4671 20.3897 14.736H20.8897ZM20.7097 13.908L21.1538 13.6783C20.9939 13.3691 20.7657 13.1189 20.4676 12.9469L20.2177 13.38L19.9678 13.8131C20.0857 13.8811 20.1855 13.9829 20.2656 14.1377L20.7097 13.908ZM20.2177 13.38L20.4749 12.9513C20.1898 12.7801 19.8712 12.7 19.5337 12.7V13.2V13.7C19.7082 13.7 19.8456 13.7399 19.9604 13.8087L20.2177 13.38ZM19.5337 13.2V12.7C19.1909 12.7 18.8672 12.7788 18.5758 12.9469L18.8257 13.38L19.0756 13.8131C19.2002 13.7412 19.3484 13.7 19.5337 13.7V13.2ZM18.8257 13.38L18.5684 12.9513C18.2796 13.1245 18.0589 13.374 17.9016 13.6783L18.3457 13.908L18.7898 14.1377C18.8724 13.978 18.9717 13.8755 19.0829 13.8087L18.8257 13.38ZM18.3457 13.908L17.905 13.6719C17.7364 13.9866 17.6657 14.3489 17.6657 14.736H18.1657H18.6657C18.6657 14.4671 18.715 14.2774 18.7864 14.1441L18.3457 13.908ZM18.1657 14.736H17.6657C17.6657 15.1246 17.7369 15.4884 17.8985 15.8116L18.3457 15.588L18.7929 15.3644C18.7145 15.2076 18.6657 15.0034 18.6657 14.736H18.1657ZM18.3457 15.588L17.9016 15.8177C18.0589 16.122 18.2796 16.3715 18.5684 16.5447L18.8257 16.116L19.0829 15.6873C18.9717 15.6205 18.8724 15.518 18.7898 15.3583L18.3457 15.588ZM18.8257 16.116L18.5758 16.5491C18.8672 16.7172 19.1909 16.796 19.5337 16.796V16.296V15.796C19.3484 15.796 19.2002 15.7548 19.0756 15.6829L18.8257 16.116ZM20.9617 18H21.4617V16.884H20.9617H20.4617V18H20.9617ZM20.9617 16.884L21.4617 16.8868L21.4737 14.7388L20.9737 14.736L20.4737 14.7332L20.4617 16.8812L20.9617 16.884ZM20.9737 14.736L21.4729 14.7081L21.3529 12.5601L20.8537 12.588L20.3545 12.6159L20.4745 14.7639L20.9737 14.736ZM20.8537 12.588H21.3537V9.096H20.8537H20.3537V12.588H20.8537ZM20.8537 9.096V9.596H23.1337V9.096V8.596H20.8537V9.096ZM23.1337 9.096H22.6337V18H23.1337H23.6337V9.096H23.1337ZM23.1337 18V17.5H20.9617V18V18.5H23.1337V18ZM25.8006 18H25.3006V18.5H25.8006V18ZM25.8006 11.496V10.996H25.3006V11.496H25.8006ZM27.9726 11.496H28.4726V10.996H27.9726V11.496ZM27.9726 13.392L27.5439 13.6492L28.4726 15.1972V13.392H27.9726ZM27.6486 12.852L27.1833 12.6689L27.0932 12.8981L27.2199 13.1092L27.6486 12.852ZM28.5846 11.76L28.8274 12.1971L28.8335 12.1936L28.5846 11.76ZM30.1566 11.388H30.6566V10.888H30.1566V11.388ZM30.1566 13.44L30.0806 13.9342L30.6566 14.0228V13.44H30.1566ZM29.8806 13.416L29.8254 13.9129L29.8529 13.916H29.8806V13.416ZM28.5126 13.788L28.8389 14.1669L28.8448 14.1617L28.5126 13.788ZM28.0806 18V18.5H28.5806V18H28.0806ZM25.8006 18H26.3006V11.496H25.8006H25.3006V18H25.8006ZM25.8006 11.496V11.996H27.9726V11.496V10.996H25.8006V11.496ZM27.9726 11.496H27.4726V13.392H27.9726H28.4726V11.496H27.9726ZM27.9726 13.392L28.4013 13.1348L28.0773 12.5948L27.6486 12.852L27.2199 13.1092L27.5439 13.6492L27.9726 13.392ZM27.6486 12.852L28.1139 13.0351C28.2662 12.6479 28.5033 12.3772 28.8274 12.1971L28.5846 11.76L28.3418 11.3229C27.8019 11.6228 27.415 12.0801 27.1833 12.6689L27.6486 12.852ZM28.5846 11.76L28.8335 12.1936C29.1738 11.9983 29.6075 11.888 30.1566 11.888V11.388V10.888C29.4737 10.888 28.8594 11.0257 28.3357 11.3264L28.5846 11.76ZM30.1566 11.388H29.6566V13.44H30.1566H30.6566V11.388H30.1566ZM30.1566 13.44L30.2326 12.9458C30.1108 12.9271 29.9925 12.916 29.8806 12.916V13.416V13.916C29.9287 13.916 29.9944 13.9209 30.0806 13.9342L30.1566 13.44ZM29.8806 13.416L29.9358 12.9191C29.8421 12.9086 29.7433 12.904 29.6406 12.904V13.404V13.904C29.7139 13.904 29.7751 13.9074 29.8254 13.9129L29.8806 13.416ZM29.6406 13.404V12.904C29.0804 12.904 28.5778 13.061 28.1804 13.4143L28.5126 13.788L28.8448 14.1617C29.0234 14.003 29.2728 13.904 29.6406 13.904V13.404ZM28.5126 13.788L28.1863 13.4091C27.7427 13.7911 27.5806 14.3714 27.5806 15.012H28.0806H28.5806C28.5806 14.5166 28.7065 14.2809 28.8389 14.1669L28.5126 13.788ZM28.0806 15.012H27.5806V18H28.0806H28.5806V15.012H28.0806ZM28.0806 18V17.5H25.8006V18V18.5H28.0806V18ZM35.8828 18H35.3828V18.5H35.8828V18ZM35.8828 16.788H36.3828V16.6658L36.3264 16.5573L35.8828 16.788ZM35.7268 16.488H35.2268V16.6102L35.2831 16.7187L35.7268 16.488ZM35.3908 13.428L35.051 13.7949L35.0581 13.8014L35.0654 13.8076L35.3908 13.428ZM33.3988 13.284L33.5425 13.763L33.5533 13.7595L33.3988 13.284ZM32.5828 13.692L32.1348 13.9142L32.4081 14.4651L32.8917 14.0852L32.5828 13.692ZM31.8148 12.144L31.5416 11.7252L31.1693 11.968L31.3668 12.3662L31.8148 12.144ZM33.1348 11.592L33.256 12.0771L33.2613 12.0757L33.1348 11.592ZM37.1308 12.12L36.8075 12.5015L36.8133 12.5063L37.1308 12.12ZM38.0068 18V18.5H38.5068V18H38.0068ZM32.6428 17.844L32.8624 17.3948L32.6428 17.844ZM31.8148 17.124L31.3869 17.3829L31.392 17.391L31.8148 17.124ZM31.8388 15.072L31.4297 14.7845L31.4281 14.7868L31.8388 15.072ZM32.7868 14.4L32.9555 14.8707L32.9633 14.8678L32.7868 14.4ZM35.9668 14.16H36.4668V13.66H35.9668V14.16ZM35.9668 15.348V15.848H36.4668V15.348H35.9668ZM33.9628 15.528L33.6528 15.1354L33.6427 15.1439L33.9628 15.528ZM33.9748 16.488L33.6649 16.8804V16.8804L33.9748 16.488ZM35.2708 16.488L35.528 16.9168L35.5328 16.9138L35.2708 16.488ZM35.7268 15.912L36.1955 15.7379L35.729 14.482L35.2586 15.7364L35.7268 15.912ZM36.0388 16.752L36.5217 16.8814L36.563 16.7274L36.5075 16.5779L36.0388 16.752ZM35.3308 17.772L35.6036 18.191L35.6059 18.1895L35.3308 17.772ZM35.8828 18H36.3828V16.788H35.8828H35.3828V18H35.8828ZM35.8828 16.788L36.3264 16.5573L36.1704 16.2573L35.7268 16.488L35.2831 16.7187L35.4391 17.0187L35.8828 16.788ZM35.7268 16.488H36.2268V14.256H35.7268H35.2268V16.488H35.7268ZM35.7268 14.256H36.2268C36.2268 13.7851 36.0751 13.356 35.7161 13.0484L35.3908 13.428L35.0654 13.8076C35.1544 13.884 35.2268 14.0069 35.2268 14.256H35.7268ZM35.3908 13.428L35.7305 13.0611C35.3788 12.7355 34.8777 12.628 34.3468 12.628V13.128V13.628C34.7758 13.628 34.9707 13.7205 35.051 13.7949L35.3908 13.428ZM34.3468 13.128V12.628C33.9783 12.628 33.6102 12.6895 33.2442 12.8085L33.3988 13.284L33.5533 13.7595C33.8273 13.6705 34.0912 13.628 34.3468 13.628V13.128ZM33.3988 13.284L33.2551 12.8051C32.8853 12.916 32.5548 13.0781 32.2738 13.2988L32.5828 13.692L32.8917 14.0852C33.0587 13.9539 33.2722 13.844 33.5424 13.7629L33.3988 13.284ZM32.5828 13.692L33.0307 13.4698L32.2627 11.9218L31.8148 12.144L31.3668 12.3662L32.1348 13.9142L32.5828 13.692ZM31.8148 12.144L32.0879 12.5628C32.401 12.3586 32.7874 12.1942 33.256 12.0771L33.1348 11.592L33.0135 11.1069C32.4581 11.2458 31.9645 11.4494 31.5416 11.7252L31.8148 12.144ZM33.1348 11.592L33.2613 12.0757C33.742 11.95 34.2155 11.888 34.6828 11.888V11.388V10.888C34.126 10.888 33.5675 10.962 33.0082 11.1083L33.1348 11.592ZM34.6828 11.388V11.888C35.6672 11.888 36.3521 12.1156 36.8075 12.5015L37.1308 12.12L37.454 11.7385C36.7574 11.1484 35.8103 10.888 34.6828 10.888V11.388ZM37.1308 12.12L36.8133 12.5063C37.2435 12.8599 37.5068 13.4478 37.5068 14.388H38.0068H38.5068C38.5068 13.2642 38.186 12.3401 37.4482 11.7337L37.1308 12.12ZM38.0068 14.388H37.5068V18H38.0068H38.5068V14.388H38.0068ZM38.0068 18V17.5H35.8828V18V18.5H38.0068V18ZM33.9628 18.108V17.608C33.497 17.608 33.1368 17.529 32.8624 17.3948L32.6428 17.844L32.4231 18.2932C32.8688 18.511 33.3885 18.608 33.9628 18.608V18.108ZM32.6428 17.844L32.8624 17.3948C32.5758 17.2547 32.3745 17.0739 32.2375 16.857L31.8148 17.124L31.392 17.391C31.639 17.7821 31.9897 18.0813 32.4231 18.2932L32.6428 17.844ZM31.8148 17.124L32.2425 16.8651C32.1086 16.6438 32.0388 16.3943 32.0388 16.104H31.5388H31.0388C31.0388 16.5657 31.153 16.9962 31.387 17.3829L31.8148 17.124ZM31.5388 16.104H32.0388C32.0388 15.7911 32.1155 15.55 32.2494 15.3572L31.8388 15.072L31.4281 14.7868C31.162 15.17 31.0388 15.6169 31.0388 16.104H31.5388ZM31.8388 15.072L32.2478 15.3595C32.3834 15.1666 32.6046 14.9965 32.9555 14.8707L32.7868 14.4L32.618 13.9293C32.1209 14.1075 31.7101 14.3854 31.4297 14.7845L31.8388 15.072ZM32.7868 14.4L32.9633 14.8678C33.3106 14.7367 33.7927 14.66 34.4308 14.66V14.16V13.66C33.7248 13.66 33.1109 13.7433 32.6102 13.9322L32.7868 14.4ZM34.4308 14.16V14.66H35.9668V14.16V13.66H34.4308V14.16ZM35.9668 14.16H35.4668V15.348H35.9668H36.4668V14.16H35.9668ZM35.9668 15.348V14.848H34.7428V15.348V15.848H35.9668V15.348ZM34.7428 15.348V14.848C34.3496 14.848 33.9433 14.9063 33.6529 15.1356L33.9628 15.528L34.2726 15.9204C34.2721 15.9208 34.2788 15.9155 34.2972 15.9074C34.3157 15.8993 34.3439 15.8895 34.3842 15.8802C34.4664 15.8612 34.5834 15.848 34.7428 15.848V15.348ZM33.9628 15.528L33.6427 15.1439C33.3762 15.3659 33.2468 15.671 33.2468 16.008H33.7468H34.2468C34.2468 15.945 34.2613 15.9301 34.2828 15.9121L33.9628 15.528ZM33.7468 16.008H33.2468C33.2468 16.3552 33.3883 16.6621 33.6649 16.8804L33.9748 16.488L34.2846 16.0956C34.2632 16.0787 34.2574 16.0678 34.2554 16.0635C34.2531 16.0587 34.2468 16.0434 34.2468 16.008H33.7468ZM33.9748 16.488L33.6649 16.8804C33.9324 17.0916 34.2628 17.168 34.5988 17.168V16.668V16.168C34.4067 16.168 34.3211 16.1244 34.2846 16.0956L33.9748 16.488ZM34.5988 16.668V17.168C34.9314 17.168 35.2453 17.0863 35.528 16.9167L35.2708 16.488L35.0135 16.0593C34.8962 16.1297 34.7621 16.168 34.5988 16.168V16.668ZM35.2708 16.488L35.5328 16.9138C35.8467 16.7207 36.0648 16.4345 36.1949 16.0876L35.7268 15.912L35.2586 15.7364C35.1967 15.9015 35.1108 15.9993 35.0087 16.0622L35.2708 16.488ZM35.7268 15.912L35.258 16.0861L35.57 16.9261L36.0388 16.752L36.5075 16.5779L36.1955 15.7379L35.7268 15.912ZM36.0388 16.752L35.5558 16.6226C35.464 16.9652 35.2949 17.1968 35.0556 17.3545L35.3308 17.772L35.6059 18.1895C36.0706 17.8832 36.3735 17.4348 36.5217 16.8814L36.0388 16.752ZM35.3308 17.772L35.0579 17.353C34.8207 17.5075 34.4697 17.608 33.9628 17.608V18.108V18.608C34.5918 18.608 35.1528 18.4845 35.6036 18.191L35.3308 17.772ZM41.9539 17.796L41.7303 18.2432L41.7337 18.2449L41.9539 17.796ZM40.9699 16.824L40.5258 17.054L40.531 17.0634L40.9699 16.824ZM40.6219 11.496V10.996H40.1219V11.496H40.6219ZM42.9019 11.496H43.4019V10.996H42.9019V11.496ZM43.1779 15.84L42.7972 16.1643L42.8042 16.1722L43.1779 15.84ZM45.0379 15.516L45.4852 15.7396L45.4882 15.7334L45.0379 15.516ZM45.2059 11.496V10.996H44.7059V11.496H45.2059ZM47.4859 11.496H47.9859V10.996H47.4859V11.496ZM47.4859 18V18.5H47.9859V18H47.4859ZM45.3139 18H44.8139V18.5H45.3139V18ZM45.3139 16.164L45.7017 15.8484L44.8139 14.7577V16.164H45.3139ZM45.7339 16.68L46.187 16.8914L46.3195 16.6074L46.1217 16.3644L45.7339 16.68ZM44.7619 17.76L45.0019 18.1987L45.0082 18.1951L44.7619 17.76ZM43.3819 18.108V17.608C42.9212 17.608 42.5219 17.5177 42.1741 17.3471L41.9539 17.796L41.7337 18.2449C42.234 18.4903 42.7867 18.608 43.3819 18.608V18.108ZM41.9539 17.796L42.1775 17.3488C41.86 17.19 41.604 16.9423 41.4089 16.5846L40.9699 16.824L40.531 17.0634C40.8159 17.5857 41.2158 17.986 41.7303 18.2432L41.9539 17.796ZM40.9699 16.824L41.4139 16.5941C41.2292 16.2375 41.1219 15.7586 41.1219 15.132H40.6219H40.1219C40.1219 15.8654 40.2466 16.5145 40.5259 17.0539L40.9699 16.824ZM40.6219 15.132H41.1219V11.496H40.6219H40.1219V15.132H40.6219ZM40.6219 11.496V11.996H42.9019V11.496V10.996H40.6219V11.496ZM42.9019 11.496H42.4019V14.76H42.9019H43.4019V11.496H42.9019ZM42.9019 14.76H42.4019C42.4019 15.2999 42.4956 15.8101 42.7973 16.1642L43.1779 15.84L43.5585 15.5158C43.4922 15.4379 43.4019 15.2281 43.4019 14.76H42.9019ZM43.1779 15.84L42.8042 16.1722C43.1092 16.5153 43.5248 16.664 43.9819 16.664V16.164V15.664C43.751 15.664 43.6306 15.5967 43.5516 15.5078L43.1779 15.84ZM43.9819 16.164V16.664C44.2868 16.664 44.5764 16.5923 44.8399 16.4433L44.5939 16.008L44.3479 15.5727C44.2435 15.6317 44.125 15.664 43.9819 15.664V16.164ZM44.5939 16.008L44.8399 16.4433C45.1256 16.2818 45.337 16.0358 45.4851 15.7396L45.0379 15.516L44.5907 15.2924C44.5148 15.4442 44.4302 15.5262 44.3479 15.5727L44.5939 16.008ZM45.0379 15.516L45.4882 15.7334C45.6432 15.4122 45.7059 15.0352 45.7059 14.628H45.2059H44.7059C44.7059 14.9408 44.6566 15.1558 44.5876 15.2986L45.0379 15.516ZM45.2059 14.628H45.7059V11.496H45.2059H44.7059V14.628H45.2059ZM45.2059 11.496V11.996H47.4859V11.496V10.996H45.2059V11.496ZM47.4859 11.496H46.9859V18H47.4859H47.9859V11.496H47.4859ZM47.4859 18V17.5H45.3139V18V18.5H47.4859V18ZM45.3139 18H45.8139V16.164H45.3139H44.8139V18H45.3139ZM45.3139 16.164L44.9261 16.4796L45.3461 16.9956L45.7339 16.68L46.1217 16.3644L45.7017 15.8484L45.3139 16.164ZM45.7339 16.68L45.2808 16.4686C45.0968 16.863 44.8411 17.1406 44.5156 17.3249L44.7619 17.76L45.0082 18.1951C45.5307 17.8994 45.9231 17.457 46.187 16.8914L45.7339 16.68ZM44.7619 17.76L44.5219 17.3214C44.1735 17.512 43.7963 17.608 43.3819 17.608V18.108V18.608C43.9595 18.608 44.5023 18.472 45.0019 18.1986L44.7619 17.76ZM50.1545 18H49.6545V18.5H50.1545V18ZM50.1545 9.096V8.596H49.6545V9.096H50.1545ZM52.4345 9.096H52.9345V8.596H52.4345V9.096ZM52.4345 18V18.5H52.9345V18H52.4345ZM50.1545 18H50.6545V9.096H50.1545H49.6545V18H50.1545ZM50.1545 9.096V9.596H52.4345V9.096V8.596H50.1545V9.096ZM52.4345 9.096H51.9345V18H52.4345H52.9345V9.096H52.4345ZM52.4345 18V17.5H50.1545V18V18.5H52.4345V18ZM55.1162 18H54.6162V18.5H55.1162V18ZM55.1162 11.496V10.996H54.6162V11.496H55.1162ZM57.3962 11.496H57.8962V10.996H57.3962V11.496ZM57.3962 18V18.5H57.8962V18H57.3962ZM55.2482 10.428L55.584 10.0575V10.0575L55.2482 10.428ZM55.2482 8.7L55.584 9.07049V9.07049L55.2482 8.7ZM57.2642 8.688L56.9349 9.06435L56.9418 9.07015L57.2642 8.688ZM57.2642 10.428L57.6058 10.7931L57.6062 10.7928L57.2642 10.428ZM55.1162 18H55.6162V11.496H55.1162H54.6162V18H55.1162ZM55.1162 11.496V11.996H57.3962V11.496V10.996H55.1162V11.496ZM57.3962 11.496H56.8962V18H57.3962H57.8962V11.496H57.3962ZM57.3962 18V17.5H55.1162V18V18.5H57.3962V18ZM56.2562 10.776V10.276C55.9377 10.276 55.73 10.1898 55.584 10.0575L55.2482 10.428L54.9125 10.7985C55.2785 11.1302 55.7428 11.276 56.2562 11.276V10.776ZM55.2482 10.428L55.584 10.0575C55.4321 9.91982 55.3642 9.76616 55.3642 9.564H54.8642H54.3642C54.3642 10.0498 54.5524 10.4722 54.9125 10.7985L55.2482 10.428ZM54.8642 9.564H55.3642C55.3642 9.36184 55.4321 9.20818 55.584 9.07049L55.2482 8.7L54.9125 8.32951C54.5524 8.65582 54.3642 9.07816 54.3642 9.564H54.8642ZM55.2482 8.7L55.584 9.07049C55.73 8.93817 55.9377 8.852 56.2562 8.852V8.352V7.852C55.7428 7.852 55.2785 7.99783 54.9125 8.32951L55.2482 8.7ZM56.2562 8.352V8.852C56.5793 8.852 56.7893 8.93681 56.935 9.06429L57.2642 8.688L57.5935 8.31171C57.2272 7.99119 56.7652 7.852 56.2562 7.852V8.352ZM57.2642 8.688L56.9418 9.07015C57.0817 9.18823 57.1482 9.32674 57.1482 9.528H57.6482H58.1482C58.1482 9.04126 57.9587 8.61977 57.5867 8.30585L57.2642 8.688ZM57.6482 9.528H57.1482C57.1482 9.75385 57.0745 9.92049 56.9223 10.0632L57.2642 10.428L57.6062 10.7928C57.9659 10.4555 58.1482 10.0222 58.1482 9.528H57.6482ZM57.2642 10.428L56.9226 10.0629C56.7888 10.188 56.5864 10.276 56.2562 10.276V10.776V11.276C56.7741 11.276 57.2436 11.132 57.6058 10.7931L57.2642 10.428ZM65.6819 11.7L65.4548 12.1455L65.4619 12.149L65.6819 11.7ZM66.6419 12.636L66.2033 12.876L66.2068 12.8823L66.6419 12.636ZM67.0019 18V18.5H67.5019V18H67.0019ZM64.7219 18H64.2219V18.5H64.7219V18ZM64.4339 13.644L64.0533 13.9682L64.0598 13.9758L64.0665 13.9831L64.4339 13.644ZM62.9939 13.488L63.2246 13.9316L63.2315 13.928L63.2382 13.9243L62.9939 13.488ZM62.3579 18V18.5H62.8579V18H62.3579ZM60.0779 18H59.5779V18.5H60.0779V18ZM60.0779 11.496V10.996H59.5779V11.496H60.0779ZM62.2499 11.496H62.7499V10.996H62.2499V11.496ZM62.2499 13.344L61.8553 13.651L62.7499 14.8013V13.344H62.2499ZM61.8299 12.804L61.3873 12.5714L61.2375 12.8567L61.4353 13.111L61.8299 12.804ZM62.8499 11.748L63.0865 12.1885L63.0928 12.1851L62.8499 11.748ZM64.3139 11.388V11.888C64.7471 11.888 65.124 11.9768 65.4548 12.1455L65.6819 11.7L65.909 11.2545C65.4239 11.0072 64.8888 10.888 64.3139 10.888V11.388ZM65.6819 11.7L65.4619 12.149C65.7711 12.3006 66.0175 12.5364 66.2033 12.876L66.6419 12.636L67.0806 12.396C66.8024 11.8876 66.4087 11.4994 65.902 11.251L65.6819 11.7ZM66.6419 12.636L66.2068 12.8823C66.3912 13.208 66.5019 13.6631 66.5019 14.28H67.0019H67.5019C67.5019 13.5529 67.3727 12.912 67.0771 12.3897L66.6419 12.636ZM67.0019 14.28H66.5019V18H67.0019H67.5019V14.28H67.0019ZM67.0019 18V17.5H64.7219V18V18.5H67.0019V18ZM64.7219 18H65.2219V14.652H64.7219H64.2219V18H64.7219ZM64.7219 14.652H65.2219C65.2219 14.1379 65.1188 13.6488 64.8013 13.3049L64.4339 13.644L64.0665 13.9831C64.133 14.0552 64.2219 14.2381 64.2219 14.652H64.7219ZM64.4339 13.644L64.8146 13.3198C64.5178 12.9714 64.1067 12.82 63.6539 12.82V13.32V13.82C63.8732 13.82 63.9821 13.8846 64.0533 13.9682L64.4339 13.644ZM63.6539 13.32V12.82C63.3326 12.82 63.0278 12.896 62.7496 13.0517L62.9939 13.488L63.2382 13.9243C63.36 13.856 63.4953 13.82 63.6539 13.82V13.32ZM62.9939 13.488L62.7633 13.0444C62.4594 13.2024 62.2324 13.449 62.0787 13.7564L62.5259 13.98L62.9732 14.2036C63.0435 14.063 63.1285 13.9816 63.2246 13.9316L62.9939 13.488ZM62.5259 13.98L62.0787 13.7564C61.9202 14.0734 61.8579 14.45 61.8579 14.856H62.3579H62.8579C62.8579 14.542 62.9077 14.3346 62.9732 14.2036L62.5259 13.98ZM62.3579 14.856H61.8579V18H62.3579H62.8579V14.856H62.3579ZM62.3579 18V17.5H60.0779V18V18.5H62.3579V18ZM60.0779 18H60.5779V11.496H60.0779H59.5779V18H60.0779ZM60.0779 11.496V11.996H62.2499V11.496V10.996H60.0779V11.496ZM62.2499 11.496H61.7499V13.344H62.2499H62.7499V11.496H62.2499ZM62.2499 13.344L62.6446 13.037L62.2246 12.497L61.8299 12.804L61.4353 13.111L61.8553 13.651L62.2499 13.344ZM61.8299 12.804L62.2726 13.0366C62.4784 12.6448 62.7501 12.3692 63.0865 12.1885L62.8499 11.748L62.6134 11.3075C62.0858 11.5908 61.6775 12.0192 61.3873 12.5714L61.8299 12.804ZM62.8499 11.748L63.0928 12.1851C63.4432 11.9904 63.8461 11.888 64.3139 11.888V11.388V10.888C63.6937 10.888 63.1207 11.0256 62.6071 11.3109L62.8499 11.748ZM71.1074 17.676L70.8763 18.1195L70.8838 18.1232L71.1074 17.676ZM69.7754 16.476L69.3484 16.7362L69.3533 16.744L69.7754 16.476ZM69.7634 13.008L69.3365 12.7478L69.3353 12.7498L69.7634 13.008ZM71.0474 11.82L71.2763 12.2646L71.2814 12.2619L71.0474 11.82ZM74.6354 11.784L74.4118 12.2312L74.4173 12.2339L74.6354 11.784ZM75.8954 12.924L76.3206 12.6608V12.6608L75.8954 12.924ZM76.3514 15.036L76.85 15.0743V15.0743L76.3514 15.036ZM76.3274 15.324V15.824H76.784L76.8254 15.3693L76.3274 15.324ZM71.1794 15.324H70.6794V15.824H71.1794V15.324ZM71.1794 14.124V13.624H70.6794V14.124H71.1794ZM75.1154 14.124L75.2967 14.59L75.1154 13.624V14.124ZM74.2514 14.46L73.7516 14.4465L73.7313 15.1988L74.4327 14.926L74.2514 14.46ZM74.0834 13.692L73.6396 13.9222L73.6429 13.9285L73.6464 13.9348L74.0834 13.692ZM73.6034 13.188L73.3462 13.6168L73.3536 13.6211L73.6034 13.188ZM72.1754 13.188L71.9255 12.7548L71.9182 12.7593L72.1754 13.188ZM71.7074 13.704L72.1514 13.9342L72.1547 13.9276L71.7074 13.704ZM71.7314 15.648L71.2935 15.8896L71.3001 15.9009L71.7314 15.648ZM72.3074 16.188L72.078 16.6325L72.0897 16.6381L72.3074 16.188ZM74.0114 16.236L74.1943 16.7015L74.2026 16.698L74.0114 16.236ZM74.6954 15.804L75.0559 15.4574L74.7286 15.1171L74.37 15.4244L74.6954 15.804ZM75.8954 17.052L76.2658 17.3879L76.5795 17.042L76.2559 16.7054L75.8954 17.052ZM74.7434 17.844L74.9235 18.3105L74.9305 18.3077L74.7434 17.844ZM71.9834 10.416L71.6298 10.7696L71.6364 10.7759L71.9834 10.416ZM71.9834 8.712L72.3306 9.07198L72.337 9.06555L71.9834 8.712ZM73.6874 8.712L73.3338 9.06561L73.3404 9.07192L73.6874 8.712ZM73.6874 10.416L74.0346 10.776L74.041 10.7696L73.6874 10.416ZM73.1234 18.108V17.608C72.4182 17.608 71.8255 17.476 71.3311 17.2288L71.1074 17.676L70.8838 18.1232C71.5414 18.452 72.2926 18.608 73.1234 18.608V18.108ZM71.1074 17.676L71.3385 17.2326C70.8426 16.9742 70.467 16.6323 70.1975 16.208L69.7754 16.476L69.3533 16.744C69.7239 17.3277 70.2363 17.7858 70.8764 18.1194L71.1074 17.676ZM69.7754 16.476L70.2024 16.2158C69.942 15.7885 69.8074 15.2999 69.8074 14.736H69.3074H68.8074C68.8074 15.4681 68.9849 16.1395 69.3485 16.7362L69.7754 16.476ZM69.3074 14.736H69.8074C69.8074 14.1695 69.9393 13.6846 70.1916 13.2662L69.7634 13.008L69.3353 12.7498C68.9796 13.3394 68.8074 14.0065 68.8074 14.736H69.3074ZM69.7634 13.008L70.1904 13.2682C70.4536 12.8364 70.8122 12.5034 71.2763 12.2646L71.0474 11.82L70.8186 11.3754C70.1946 11.6966 69.6973 12.1556 69.3365 12.7478L69.7634 13.008ZM71.0474 11.82L71.2814 12.2619C71.746 12.0159 72.2763 11.888 72.8834 11.888V11.388V10.888C72.1306 10.888 71.4369 11.0481 70.8135 11.3781L71.0474 11.82ZM72.8834 11.388V11.888C73.4525 11.888 73.959 12.0048 74.4118 12.2312L74.6354 11.784L74.8591 11.3368C74.2559 11.0352 73.5944 10.888 72.8834 10.888V11.388ZM74.6354 11.784L74.4173 12.2339C74.8591 12.4481 75.2077 12.7629 75.4703 13.1872L75.8954 12.924L76.3206 12.6608C75.9592 12.0771 75.4678 11.6319 74.8536 11.3341L74.6354 11.784ZM75.8954 12.924L75.4703 13.1872C75.7238 13.5967 75.8634 14.113 75.8634 14.76H76.3634H76.8634C76.8634 13.967 76.6911 13.2593 76.3206 12.6608L75.8954 12.924ZM76.3634 14.76H75.8634C75.8634 14.824 75.8602 14.9028 75.8529 14.9977L76.3514 15.036L76.85 15.0743C76.8587 14.9612 76.8634 14.856 76.8634 14.76H76.3634ZM76.3514 15.036L75.8529 14.9977C75.8451 15.0997 75.8373 15.1934 75.8295 15.2787L76.3274 15.324L76.8254 15.3693C76.8336 15.2786 76.8418 15.1803 76.85 15.0743L76.3514 15.036ZM76.3274 15.324V14.824H71.1794V15.324V15.824H76.3274V15.324ZM71.1794 15.324H71.6794V14.124H71.1794H70.6794V15.324H71.1794ZM71.1794 14.124V14.624H75.1154V14.124V13.624H71.1794V14.124ZM75.1154 14.124L74.9342 13.658L74.0702 13.994L74.2514 14.46L74.4327 14.926L75.2967 14.59L75.1154 14.124ZM74.2514 14.46L74.7513 14.4735C74.7612 14.1058 74.6919 13.7577 74.5205 13.4492L74.0834 13.692L73.6464 13.9348C73.715 14.0583 73.7577 14.2222 73.7516 14.4465L74.2514 14.46ZM74.0834 13.692L74.5273 13.4618C74.372 13.1622 74.1452 12.9233 73.8533 12.7549L73.6034 13.188L73.3536 13.6211C73.4777 13.6927 73.5709 13.7898 73.6396 13.9222L74.0834 13.692ZM73.6034 13.188L73.8607 12.7593C73.5709 12.5854 73.2428 12.508 72.8954 12.508V13.008V13.508C73.0921 13.508 73.236 13.5506 73.3462 13.6167L73.6034 13.188ZM72.8954 13.008V12.508C72.5476 12.508 72.2192 12.5855 71.9256 12.7549L72.1754 13.188L72.4253 13.6211C72.5477 13.5505 72.6993 13.508 72.8954 13.508V13.008ZM72.1754 13.188L71.9182 12.7593C71.6306 12.9318 71.4115 13.1779 71.2602 13.4804L71.7074 13.704L72.1547 13.9276C72.2274 13.7821 72.3203 13.6842 72.4327 13.6167L72.1754 13.188ZM71.7074 13.704L71.2636 13.4738C71.1075 13.7748 71.0394 14.113 71.0394 14.472H71.5394H72.0394C72.0394 14.239 72.0834 14.0652 72.1513 13.9342L71.7074 13.704ZM71.5394 14.472H71.0394V14.82H71.5394H72.0394V14.472H71.5394ZM71.5394 14.82H71.0394C71.0394 15.207 71.1172 15.5697 71.2937 15.8895L71.7314 15.648L72.1692 15.4065C72.0897 15.2623 72.0394 15.073 72.0394 14.82H71.5394ZM71.7314 15.648L71.3001 15.9009C71.4858 16.2177 71.7494 16.4626 72.0781 16.6323L72.3074 16.188L72.5368 15.7437C72.3695 15.6574 72.2491 15.5423 72.1628 15.3951L71.7314 15.648ZM72.3074 16.188L72.0897 16.6381C72.4203 16.7981 72.7943 16.868 73.1954 16.868V16.368V15.868C72.9086 15.868 72.6906 15.8179 72.5252 15.7379L72.3074 16.188ZM73.1954 16.368V16.868C73.5586 16.868 73.8963 16.8184 74.1943 16.7014L74.0114 16.236L73.8286 15.7706C73.6786 15.8296 73.4723 15.868 73.1954 15.868V16.368ZM74.0114 16.236L74.2026 16.698C74.4911 16.5786 74.7636 16.4041 75.0208 16.1836L74.6954 15.804L74.37 15.4244C74.1793 15.5879 73.9958 15.7014 73.8203 15.774L74.0114 16.236ZM74.6954 15.804L74.335 16.1506L75.535 17.3986L75.8954 17.052L76.2559 16.7054L75.0559 15.4574L74.6954 15.804ZM75.8954 17.052L75.5251 16.7161C75.2667 17.001 74.9466 17.2228 74.5564 17.3803L74.7434 17.844L74.9305 18.3077C75.4523 18.0972 75.9002 17.791 76.2658 17.3879L75.8954 17.052ZM74.7434 17.844L74.5634 17.3775C74.1783 17.5262 73.7022 17.608 73.1234 17.608V18.108V18.608C73.7927 18.608 74.3966 18.5138 74.9235 18.3105L74.7434 17.844ZM72.8354 10.74V10.24C72.606 10.24 72.4511 10.1724 72.3305 10.0561L71.9834 10.416L71.6364 10.7759C71.9638 11.0916 72.3769 11.24 72.8354 11.24V10.74ZM71.9834 10.416L72.337 10.0624C72.2176 9.94305 72.1474 9.78754 72.1474 9.552H71.6474H71.1474C71.1474 10.0205 71.3013 10.441 71.6299 10.7696L71.9834 10.416ZM71.6474 9.552H72.1474C72.1474 9.32796 72.2151 9.18325 72.3305 9.07192L71.9834 8.712L71.6364 8.35208C71.3038 8.67275 71.1474 9.08804 71.1474 9.552H71.6474ZM71.9834 8.712L72.337 9.06555C72.4587 8.94385 72.6115 8.876 72.8354 8.876V8.376V7.876C72.3714 7.876 71.9562 8.03215 71.6299 8.35845L71.9834 8.712ZM72.8354 8.376V8.876C73.0594 8.876 73.2122 8.94385 73.3339 9.06555L73.6874 8.712L74.041 8.35845C73.7147 8.03215 73.2995 7.876 72.8354 7.876V8.376ZM73.6874 8.712L73.3404 9.07192C73.4558 9.18325 73.5234 9.32796 73.5234 9.552H74.0234H74.5234C74.5234 9.08804 74.3671 8.67275 74.0345 8.35208L73.6874 8.712ZM74.0234 9.552H73.5234C73.5234 9.78754 73.4533 9.94305 73.3339 10.0624L73.6874 10.416L74.041 10.7696C74.3696 10.441 74.5234 10.0205 74.5234 9.552H74.0234ZM73.6874 10.416L73.3404 10.0561C73.2198 10.1724 73.0649 10.24 72.8354 10.24V10.74V11.24C73.294 11.24 73.7071 11.0916 74.0345 10.7759L73.6874 10.416ZM79.3587 17.916L79.2392 18.4015L79.2409 18.4019L79.3587 17.916ZM78.0987 17.436L77.6407 17.2352L77.464 17.6383L77.8414 17.8647L78.0987 17.436ZM78.7827 15.876L79.0416 15.4482L78.5537 15.153L78.3247 15.6752L78.7827 15.876ZM79.8507 16.32L79.7183 16.8022L79.7272 16.8045L79.8507 16.32ZM81.8427 16.356L81.6097 15.9134L81.5998 15.9189L81.8427 16.356ZM81.8547 15.756L81.6418 16.2084L81.6574 16.2158L81.6734 16.222L81.8547 15.756ZM81.3027 15.612L81.2319 16.107L81.2343 16.1073L81.3027 15.612ZM80.5587 15.504L80.4859 15.9987V15.9987L80.5587 15.504ZM79.7307 15.348L79.6027 15.8314L79.6109 15.8335L79.6192 15.8354L79.7307 15.348ZM78.9747 15.036L78.7043 15.4566L78.7129 15.4621L78.7218 15.4673L78.9747 15.036ZM78.4347 14.46L78.8697 14.2135V14.2135L78.4347 14.46ZM78.5907 12.444L78.1918 12.1424L78.1907 12.144L78.5907 12.444ZM79.6707 11.676L79.8523 12.1419L79.8591 12.1391L79.6707 11.676ZM82.7787 11.532L82.6773 12.0217L82.687 12.0235L82.7787 11.532ZM83.9667 11.94L84.424 12.1421L84.6058 11.7307L84.2159 11.5065L83.9667 11.94ZM83.2827 13.488L83.0334 13.9215L83.5153 14.1985L83.74 13.6901L83.2827 13.488ZM82.3227 13.116L82.2129 13.6039L82.2246 13.6063L82.3227 13.116ZM80.5947 13.14L80.3536 12.7018L80.3441 12.7073L80.5947 13.14ZM80.5707 13.764L80.3367 14.2059L80.3471 14.2114L80.3578 14.2164L80.5707 13.764ZM81.1107 13.92L81.0228 14.4122L81.0325 14.414L81.0423 14.4153L81.1107 13.92ZM81.8667 14.028L81.7939 14.5227L81.8011 14.5237L81.8082 14.5246L81.8667 14.028ZM82.6827 14.184L82.5547 14.6674L82.5581 14.6682L82.6827 14.184ZM83.4387 14.508L83.1683 14.9286L83.1769 14.9341L83.1858 14.9393L83.4387 14.508ZM83.9907 15.072L83.5556 15.3185L83.5593 15.3249L83.9907 15.072ZM83.8227 17.052L83.4274 16.7457L83.4227 16.752L83.8227 17.052ZM82.7427 17.82L82.557 17.3558L82.5543 17.3569L82.7427 17.82ZM80.9787 18.108V17.608C80.4657 17.608 79.9653 17.5486 79.4765 17.4301L79.3587 17.916L79.2409 18.4019C79.808 18.5394 80.3876 18.608 80.9787 18.608V18.108ZM79.3587 17.916L79.4782 17.4305C78.9875 17.3097 78.6189 17.1651 78.3559 17.0073L78.0987 17.436L77.8414 17.8647C78.2184 18.0909 78.6898 18.2663 79.2392 18.4015L79.3587 17.916ZM78.0987 17.436L78.5566 17.6368L79.2406 16.0768L78.7827 15.876L78.3247 15.6752L77.6407 17.2352L78.0987 17.436ZM78.7827 15.876L78.5238 16.3038C78.8739 16.5157 79.274 16.6802 79.7183 16.8022L79.8507 16.32L79.983 15.8378C79.6113 15.7358 79.2994 15.6043 79.0416 15.4482L78.7827 15.876ZM79.8507 16.32L79.7272 16.8045C80.1725 16.918 80.6141 16.976 81.0507 16.976V16.476V15.976C80.7033 15.976 80.3448 15.93 79.9742 15.8355L79.8507 16.32ZM81.0507 16.476V16.976C81.2579 16.976 81.4466 16.9653 81.6116 16.9404C81.7705 16.9163 81.9391 16.8744 82.0855 16.7931L81.8427 16.356L81.5998 15.9189C81.6022 15.9176 81.5668 15.9357 81.4618 15.9516C81.3627 15.9667 81.2274 15.976 81.0507 15.976V16.476ZM81.8427 16.356L82.0755 16.7985C82.3408 16.6589 82.5707 16.405 82.5707 16.032H82.0707H81.5707C81.5707 16.0188 81.5726 16.0007 81.579 15.9801C81.5855 15.9593 81.5949 15.9413 81.6048 15.9273C81.624 15.9 81.636 15.8997 81.6098 15.9135L81.8427 16.356ZM82.0707 16.032H82.5707C82.5707 15.8676 82.5219 15.7014 82.4104 15.5588C82.3039 15.4228 82.1654 15.3404 82.0359 15.29L81.8547 15.756L81.6734 16.222C81.688 16.2276 81.6574 16.2192 81.6229 16.1752C81.6054 16.1528 81.5912 16.1265 81.582 16.0983C81.5729 16.0705 81.5707 16.0473 81.5707 16.032H82.0707ZM81.8547 15.756L82.0676 15.3036C81.8677 15.2096 81.6284 15.1522 81.371 15.1167L81.3027 15.612L81.2343 16.1073C81.4409 16.1358 81.5696 16.1744 81.6418 16.2084L81.8547 15.756ZM81.3027 15.612L81.3734 15.117C81.1502 15.0851 80.9029 15.0492 80.6314 15.0093L80.5587 15.504L80.4859 15.9987C80.7585 16.0388 81.0071 16.0749 81.2319 16.107L81.3027 15.612ZM80.5587 15.504L80.6314 15.0093C80.3729 14.9713 80.1098 14.9218 79.8421 14.8606L79.7307 15.348L79.6192 15.8354C79.9115 15.9022 80.2004 15.9567 80.4859 15.9987L80.5587 15.504ZM79.7307 15.348L79.8586 14.8646C79.6284 14.8037 79.4187 14.7167 79.2275 14.6047L78.9747 15.036L78.7218 15.4673C78.9947 15.6273 79.2889 15.7483 79.6027 15.8314L79.7307 15.348ZM78.9747 15.036L79.245 14.6154C79.0917 14.5168 78.9672 14.3856 78.8697 14.2135L78.4347 14.46L77.9996 14.7065C78.1741 15.0144 78.4096 15.2672 78.7043 15.4566L78.9747 15.036ZM78.4347 14.46L78.8697 14.2135C78.7882 14.0697 78.7307 13.8575 78.7307 13.548H78.2307H77.7307C77.7307 13.9745 77.8092 14.3703 77.9996 14.7065L78.4347 14.46ZM78.2307 13.548H78.7307C78.7307 13.2355 78.8183 12.9738 78.9907 12.744L78.5907 12.444L78.1907 12.144C77.883 12.5542 77.7307 13.0285 77.7307 13.548H78.2307ZM78.5907 12.444L78.9895 12.7456C79.17 12.5068 79.4465 12.3 79.8523 12.1419L79.6707 11.676L79.4891 11.2101C78.9508 11.42 78.5073 11.7252 78.1918 12.1424L78.5907 12.444ZM79.6707 11.676L79.8591 12.1391C80.2549 11.9781 80.7629 11.888 81.3987 11.888V11.388V10.888C80.6745 10.888 80.0305 10.9899 79.4823 11.2129L79.6707 11.676ZM81.3987 11.388V11.888C81.8193 11.888 82.2454 11.9323 82.6774 12.0216L82.7787 11.532L82.88 11.0424C82.3839 10.9397 81.89 10.888 81.3987 10.888V11.388ZM82.7787 11.532L82.687 12.0235C83.1194 12.1041 83.4585 12.2246 83.7174 12.3735L83.9667 11.94L84.2159 11.5065C83.8348 11.2874 83.382 11.1359 82.8703 11.0405L82.7787 11.532ZM83.9667 11.94L83.5093 11.7379L82.8253 13.2859L83.2827 13.488L83.74 13.6901L84.424 12.1421L83.9667 11.94ZM83.2827 13.488L83.5319 13.0545C83.171 12.847 82.8003 12.7016 82.4207 12.6257L82.3227 13.116L82.2246 13.6063C82.485 13.6584 82.7543 13.761 83.0334 13.9215L83.2827 13.488ZM82.3227 13.116L82.4324 12.6282C82.0813 12.5492 81.7403 12.508 81.4107 12.508V13.008V13.508C81.6571 13.508 81.924 13.5388 82.2129 13.6038L82.3227 13.116ZM81.4107 13.008V12.508C81.0161 12.508 80.6326 12.5485 80.3537 12.7019L80.5947 13.14L80.8356 13.5781C80.8767 13.5555 81.0372 13.508 81.4107 13.508V13.008ZM80.5947 13.14L80.3441 12.7073C80.1024 12.8472 79.8667 13.0937 79.8667 13.464H80.3667H80.8667C80.8667 13.4823 80.8638 13.5034 80.8568 13.525C80.8499 13.5465 80.8407 13.5632 80.8326 13.5747C80.8175 13.5961 80.8122 13.5918 80.8452 13.5727L80.5947 13.14ZM80.3667 13.464H79.8667C79.8667 13.8182 80.0767 14.0683 80.3367 14.2059L80.5707 13.764L80.8046 13.3221C80.7895 13.3141 80.8085 13.3205 80.8311 13.3538C80.8425 13.3706 80.8521 13.3903 80.8586 13.4118C80.8649 13.4331 80.8667 13.4513 80.8667 13.464H80.3667ZM80.5707 13.764L80.3578 14.2164C80.5483 14.3061 80.7753 14.368 81.0228 14.4122L81.1107 13.92L81.1986 13.4278C80.9981 13.392 80.8651 13.3499 80.7836 13.3116L80.5707 13.764ZM81.1107 13.92L81.0423 14.4153C81.2726 14.4471 81.5231 14.4829 81.7939 14.5227L81.8667 14.028L81.9394 13.5333C81.6662 13.4931 81.4127 13.4569 81.179 13.4247L81.1107 13.92ZM81.8667 14.028L81.8082 14.5246C82.0562 14.5537 82.3049 14.6012 82.5547 14.6674L82.6827 14.184L82.8106 13.7006C82.5164 13.6228 82.2212 13.5663 81.9251 13.5314L81.8667 14.028ZM82.6827 14.184L82.5581 14.6682C82.7909 14.7281 82.9929 14.8158 83.1683 14.9286L83.4387 14.508L83.709 14.0874C83.4364 13.9122 83.1345 13.7839 82.8072 13.6998L82.6827 14.184ZM83.4387 14.508L83.1858 14.9393C83.3399 15.0297 83.4619 15.153 83.5556 15.3185L83.9907 15.072L84.4257 14.8255C84.2475 14.511 84.0015 14.2583 83.6915 14.0767L83.4387 14.508ZM83.9907 15.072L83.5593 15.3249C83.6368 15.457 83.6947 15.6615 83.6947 15.972H84.1947H84.6947C84.6947 15.5465 84.6166 15.151 84.422 14.8191L83.9907 15.072ZM84.1947 15.972H83.6947C83.6947 16.2597 83.6084 16.5122 83.4275 16.7457L83.8227 17.052L84.2179 17.3583C84.5329 16.9518 84.6947 16.4843 84.6947 15.972H84.1947ZM83.8227 17.052L83.4227 16.752C83.2516 16.9801 82.9763 17.188 82.557 17.3558L82.7427 17.82L82.9284 18.2842C83.4691 18.068 83.9137 17.7639 84.2227 17.352L83.8227 17.052ZM82.7427 17.82L82.5543 17.3569C82.1602 17.5171 81.6411 17.608 80.9787 17.608V18.108V18.608C81.7243 18.608 82.3811 18.5069 82.9311 18.2831L82.7427 17.82ZM92.4613 20.22L92.3368 20.7042L92.3385 20.7047L92.4613 20.22ZM91.0213 19.584L90.5775 19.3537L90.3758 19.7425L90.7346 19.9936L91.0213 19.584ZM91.8493 17.988L92.1603 17.5964L91.685 17.219L91.4055 17.7577L91.8493 17.988ZM92.8573 18.492L93.007 18.0149L93.001 18.0131L92.8573 18.492ZM95.3773 18.276L95.0291 17.9172L95.0238 17.9224L95.3773 18.276ZM95.7853 16.344L95.2864 16.3112L95.2853 16.3276V16.344H95.7853ZM95.9053 14.52L96.4043 14.5528L96.4055 14.5348L96.4053 14.5167L95.9053 14.52ZM95.8933 12.684H95.3933L95.3934 12.6873L95.8933 12.684ZM95.8933 11.496V10.996H95.3933V11.496H95.8933ZM98.0654 11.496H98.5654V10.996H98.0654V11.496ZM97.0694 19.548L97.4021 19.9212V19.9212L97.0694 19.548ZM92.2573 17.28L92.0163 17.7182L92.0251 17.7228L92.2573 17.28ZM91.0933 16.188L90.6664 16.4485L90.6718 16.4569L91.0933 16.188ZM91.0933 12.864L90.6697 12.5984L90.6685 12.6003L91.0933 12.864ZM92.2573 11.772L92.0251 11.3292L92.0221 11.3308L92.2573 11.772ZM95.2693 11.724L95.0212 12.1582L95.028 12.1619L95.2693 11.724ZM96.1573 12.744L95.6981 12.9419L95.7011 12.9485L96.1573 12.744ZM96.1573 16.296L95.701 16.0915L95.6982 16.0981L96.1573 16.296ZM95.2693 17.328L95.5174 17.7621V17.7621L95.2693 17.328ZM95.1133 15.684L94.8832 15.2401L94.8763 15.2438L95.1133 15.684ZM95.6173 15.216L95.1962 14.9465L95.1923 14.9526L95.1886 14.9588L95.6173 15.216ZM95.6173 13.824L95.1886 14.0812L95.1923 14.0874L95.1962 14.0935L95.6173 13.824ZM95.1133 13.368L94.8763 13.8082L94.8863 13.8136L94.8964 13.8185L95.1133 13.368ZM93.6613 13.368L93.8783 13.8185L93.8849 13.8153L93.8915 13.8119L93.6613 13.368ZM93.1453 13.824L92.7242 13.5545L92.7203 13.5606L92.7166 13.5668L93.1453 13.824ZM93.1453 15.216L92.7166 15.4732L92.7203 15.4794L92.7242 15.4855L93.1453 15.216ZM93.6613 15.684L93.4312 16.1279V16.1279L93.6613 15.684ZM94.2494 20.436V19.936C93.6641 19.936 93.1095 19.8685 92.5842 19.7353L92.4613 20.22L92.3385 20.7047C92.9492 20.8595 93.5866 20.936 94.2494 20.936V20.436ZM92.4613 20.22L92.5859 19.7358C92.0735 19.604 91.6508 19.4143 91.3081 19.1744L91.0213 19.584L90.7346 19.9936C91.1919 20.3137 91.7292 20.548 92.3368 20.7042L92.4613 20.22ZM91.0213 19.584L91.4652 19.8143L92.2932 18.2183L91.8493 17.988L91.4055 17.7577L90.5775 19.3537L91.0213 19.584ZM91.8493 17.988L91.5384 18.3796C91.8691 18.6421 92.2649 18.8363 92.7137 18.9709L92.8573 18.492L93.001 18.0131C92.6498 17.9077 92.3736 17.7659 92.1603 17.5964L91.8493 17.988ZM92.8573 18.492L92.7077 18.9691C93.1587 19.1106 93.6052 19.184 94.0453 19.184V18.684V18.184C93.7175 18.184 93.372 18.1294 93.007 18.0149L92.8573 18.492ZM94.0453 18.684V19.184C94.7172 19.184 95.3221 19.0384 95.7309 18.6296L95.3773 18.276L95.0238 17.9224C94.8886 18.0577 94.6055 18.184 94.0453 18.184V18.684ZM95.3773 18.276L95.7256 18.6348C96.1249 18.2472 96.2853 17.7102 96.2853 17.112H95.7853H95.2853C95.2853 17.5378 95.1738 17.7768 95.0291 17.9172L95.3773 18.276ZM95.7853 17.112H96.2853V16.344H95.7853H95.2853V17.112H95.7853ZM95.7853 16.344L96.2843 16.3768L96.4043 14.5528L95.9053 14.52L95.4064 14.4872L95.2864 16.3112L95.7853 16.344ZM95.9053 14.52L96.4053 14.5167L96.3933 12.6807L95.8933 12.684L95.3934 12.6873L95.4054 14.5233L95.9053 14.52ZM95.8933 12.684H96.3933V11.496H95.8933H95.3933V12.684H95.8933ZM95.8933 11.496V11.996H98.0654V11.496V10.996H95.8933V11.496ZM98.0654 11.496H97.5654V16.812H98.0654H98.5654V11.496H98.0654ZM98.0654 16.812H97.5654C97.5654 17.9584 97.258 18.7099 96.7366 19.1748L97.0694 19.548L97.4021 19.9212C98.2087 19.2021 98.5654 18.1296 98.5654 16.812H98.0654ZM97.0694 19.548L96.7366 19.1748C96.1932 19.6593 95.388 19.936 94.2494 19.936V20.436V20.936C95.5427 20.936 96.6175 20.6207 97.4021 19.9212L97.0694 19.548ZM93.8533 17.664V17.164C93.3545 17.164 92.9027 17.0539 92.4896 16.8372L92.2573 17.28L92.0251 17.7228C92.588 18.0181 93.2002 18.164 93.8533 18.164V17.664ZM92.2573 17.28L92.4983 16.8419C92.0921 16.6185 91.766 16.3128 91.5149 15.9191L91.0933 16.188L90.6718 16.4569C91.0127 16.9912 91.4626 17.4135 92.0164 17.7181L92.2573 17.28ZM91.0933 16.188L91.5202 15.9276C91.2872 15.5457 91.1613 15.0828 91.1613 14.52H90.6613H90.1613C90.1613 15.2372 90.3235 15.8863 90.6665 16.4484L91.0933 16.188ZM90.6613 14.52H91.1613C91.1613 13.9569 91.2872 13.4997 91.5182 13.1277L91.0933 12.864L90.6685 12.6003C90.3235 13.1563 90.1613 13.8031 90.1613 14.52H90.6613ZM91.0933 12.864L91.5169 13.1296C91.7677 12.7297 92.0916 12.4271 92.4926 12.2132L92.2573 11.772L92.0221 11.3308C91.4631 11.6289 91.011 12.0543 90.6698 12.5984L91.0933 12.864ZM92.2573 11.772L92.4896 12.2148C92.9027 11.9981 93.3545 11.888 93.8533 11.888V11.388V10.888C93.2002 10.888 92.588 11.0339 92.0251 11.3292L92.2573 11.772ZM93.8533 11.388V11.888C94.3376 11.888 94.72 11.9859 95.0213 12.1581L95.2693 11.724L95.5174 11.2899C95.0347 11.0141 94.4731 10.888 93.8533 10.888V11.388ZM95.2693 11.724L95.028 12.1619C95.3104 12.3175 95.5362 12.5661 95.6982 12.9419L96.1573 12.744L96.6165 12.5461C96.3785 11.9939 96.0123 11.5625 95.5107 11.2861L95.2693 11.724ZM96.1573 12.744L95.7011 12.9485C95.8709 13.3273 95.9694 13.8432 95.9694 14.52H96.4694H96.9694C96.9694 13.7567 96.8598 13.0887 96.6136 12.5395L96.1573 12.744ZM96.4694 14.52H95.9694C95.9694 15.1967 95.8709 15.7127 95.7011 16.0915L96.1573 16.296L96.6136 16.5005C96.8598 15.9513 96.9694 15.2832 96.9694 14.52H96.4694ZM96.1573 16.296L95.6982 16.0981C95.5357 16.475 95.308 16.73 95.0213 16.8939L95.2693 17.328L95.5174 17.7621C96.0147 17.478 96.379 17.045 96.6165 16.4939L96.1573 16.296ZM95.2693 17.328L95.0213 16.8939C94.72 17.0661 94.3376 17.164 93.8533 17.164V17.664V18.164C94.4731 18.164 95.0347 18.0379 95.5174 17.7621L95.2693 17.328ZM94.3933 15.852V16.352C94.7355 16.352 95.0592 16.281 95.3504 16.1242L95.1133 15.684L94.8763 15.2438C94.7515 15.311 94.5952 15.352 94.3933 15.352V15.852ZM95.1133 15.684L95.3435 16.1279C95.638 15.9752 95.8763 15.7562 96.0461 15.4732L95.6173 15.216L95.1886 14.9588C95.1184 15.0758 95.0207 15.1688 94.8832 15.2401L95.1133 15.684ZM95.6173 15.216L96.0385 15.4855C96.2236 15.1962 96.3093 14.8685 96.3093 14.52H95.8093H95.3093C95.3093 14.6995 95.2671 14.8358 95.1962 14.9465L95.6173 15.216ZM95.8093 14.52H96.3093C96.3093 14.1715 96.2236 13.8438 96.0385 13.5545L95.6173 13.824L95.1962 14.0935C95.2671 14.2042 95.3093 14.3405 95.3093 14.52H95.8093ZM95.6173 13.824L96.0461 13.5668C95.8744 13.2806 95.6316 13.0626 95.3303 12.9175L95.1133 13.368L94.8964 13.8185C95.0271 13.8814 95.1203 13.9674 95.1886 14.0812L95.6173 13.824ZM95.1133 13.368L95.3504 12.9278C95.0592 12.771 94.7355 12.7 94.3933 12.7V13.2V13.7C94.5952 13.7 94.7515 13.741 94.8763 13.8082L95.1133 13.368ZM94.3933 13.2V12.7C94.0508 12.7 93.7263 12.7711 93.4312 12.9241L93.6613 13.368L93.8915 13.8119C94.0284 13.7409 94.1919 13.7 94.3933 13.7V13.2ZM93.6613 13.368L93.4444 12.9175C93.1458 13.0613 92.9027 13.2756 92.7242 13.5545L93.1453 13.824L93.5665 14.0935C93.644 13.9724 93.7449 13.8827 93.8783 13.8185L93.6613 13.368ZM93.1453 13.824L92.7166 13.5668C92.5441 13.8543 92.4653 14.1776 92.4653 14.52H92.9653H93.4653C93.4653 14.3344 93.5066 14.1937 93.5741 14.0812L93.1453 13.824ZM92.9653 14.52H92.4653C92.4653 14.8624 92.5441 15.1857 92.7166 15.4732L93.1453 15.216L93.5741 14.9588C93.5066 14.8463 93.4653 14.7056 93.4653 14.52H92.9653ZM93.1453 15.216L92.7242 15.4855C92.9007 15.7613 93.1394 15.9766 93.4312 16.1279L93.6613 15.684L93.8915 15.2401C93.7513 15.1674 93.646 15.0707 93.5665 14.9465L93.1453 15.216ZM93.6613 15.684L93.4312 16.1279C93.7263 16.2809 94.0508 16.352 94.3933 16.352V15.852V15.352C94.1919 15.352 94.0284 15.3111 93.8915 15.2401L93.6613 15.684ZM102.122 17.676L101.891 18.1195L101.899 18.1232L102.122 17.676ZM100.79 16.476L100.363 16.7362L100.368 16.744L100.79 16.476ZM100.778 13.008L100.351 12.7478L100.35 12.7498L100.778 13.008ZM102.062 11.82L102.291 12.2646L102.296 12.2619L102.062 11.82ZM105.65 11.784L105.427 12.2312L105.432 12.2339L105.65 11.784ZM106.91 12.924L107.335 12.6608V12.6608L106.91 12.924ZM107.366 15.036L107.865 15.0743V15.0743L107.366 15.036ZM107.342 15.324V15.824H107.799L107.84 15.3693L107.342 15.324ZM102.194 15.324H101.694V15.824H102.194V15.324ZM102.194 14.124V13.624H101.694V14.124H102.194ZM106.13 14.124L106.312 14.59L106.13 13.624V14.124ZM105.266 14.46L104.766 14.4465L104.746 15.1988L105.448 14.926L105.266 14.46ZM105.098 13.692L104.654 13.9222L104.658 13.9285L104.661 13.9348L105.098 13.692ZM104.618 13.188L104.361 13.6168L104.368 13.6211L104.618 13.188ZM103.19 13.188L102.94 12.7548L102.933 12.7593L103.19 13.188ZM102.722 13.704L103.166 13.9342L103.169 13.9276L102.722 13.704ZM102.746 15.648L102.308 15.8896L102.315 15.9009L102.746 15.648ZM103.322 16.188L103.093 16.6325L103.104 16.6381L103.322 16.188ZM105.026 16.236L105.209 16.7015L105.217 16.698L105.026 16.236ZM105.71 15.804L106.071 15.4574L105.743 15.1171L105.385 15.4244L105.71 15.804ZM106.91 17.052L107.281 17.3879L107.594 17.042L107.271 16.7054L106.91 17.052ZM105.758 17.844L105.938 18.3105L105.945 18.3077L105.758 17.844ZM104.138 18.108V17.608C103.433 17.608 102.84 17.476 102.346 17.2288L102.122 17.676L101.899 18.1232C102.556 18.452 103.307 18.608 104.138 18.608V18.108ZM102.122 17.676L102.353 17.2326C101.857 16.9742 101.482 16.6323 101.212 16.208L100.79 16.476L100.368 16.744C100.739 17.3277 101.251 17.7858 101.891 18.1194L102.122 17.676ZM100.79 16.476L101.217 16.2158C100.957 15.7885 100.822 15.2999 100.822 14.736H100.322H99.8223C99.8223 15.4681 99.9997 16.1395 100.363 16.7362L100.79 16.476ZM100.322 14.736H100.822C100.822 14.1695 100.954 13.6846 101.206 13.2662L100.778 13.008L100.35 12.7498C99.9945 13.3394 99.8223 14.0065 99.8223 14.736H100.322ZM100.778 13.008L101.205 13.2682C101.468 12.8364 101.827 12.5034 102.291 12.2646L102.062 11.82L101.833 11.3754C101.209 11.6966 100.712 12.1556 100.351 12.7478L100.778 13.008ZM102.062 11.82L102.296 12.2619C102.761 12.0159 103.291 11.888 103.898 11.888V11.388V10.888C103.145 10.888 102.452 11.0481 101.828 11.3781L102.062 11.82ZM103.898 11.388V11.888C104.467 11.888 104.974 12.0048 105.427 12.2312L105.65 11.784L105.874 11.3368C105.271 11.0352 104.609 10.888 103.898 10.888V11.388ZM105.65 11.784L105.432 12.2339C105.874 12.4481 106.223 12.7629 106.485 13.1872L106.91 12.924L107.335 12.6608C106.974 12.0771 106.483 11.6319 105.868 11.3341L105.65 11.784ZM106.91 12.924L106.485 13.1872C106.739 13.5967 106.878 14.113 106.878 14.76H107.378H107.878C107.878 13.967 107.706 13.2593 107.335 12.6608L106.91 12.924ZM107.378 14.76H106.878C106.878 14.824 106.875 14.9028 106.868 14.9977L107.366 15.036L107.865 15.0743C107.874 14.9612 107.878 14.856 107.878 14.76H107.378ZM107.366 15.036L106.868 14.9977C106.86 15.0997 106.852 15.1934 106.844 15.2787L107.342 15.324L107.84 15.3693C107.848 15.2786 107.857 15.1803 107.865 15.0743L107.366 15.036ZM107.342 15.324V14.824H102.194V15.324V15.824H107.342V15.324ZM102.194 15.324H102.694V14.124H102.194H101.694V15.324H102.194ZM102.194 14.124V14.624H106.13V14.124V13.624H102.194V14.124ZM106.13 14.124L105.949 13.658L105.085 13.994L105.266 14.46L105.448 14.926L106.312 14.59L106.13 14.124ZM105.266 14.46L105.766 14.4735C105.776 14.1058 105.707 13.7577 105.535 13.4492L105.098 13.692L104.661 13.9348C104.73 14.0583 104.773 14.2222 104.766 14.4465L105.266 14.46ZM105.098 13.692L105.542 13.4618C105.387 13.1622 105.16 12.9233 104.868 12.7549L104.618 13.188L104.368 13.6211C104.493 13.6927 104.586 13.7898 104.654 13.9222L105.098 13.692ZM104.618 13.188L104.876 12.7593C104.586 12.5854 104.258 12.508 103.91 12.508V13.008V13.508C104.107 13.508 104.251 13.5506 104.361 13.6167L104.618 13.188ZM103.91 13.008V12.508C103.562 12.508 103.234 12.5855 102.94 12.7549L103.19 13.188L103.44 13.6211C103.563 13.5505 103.714 13.508 103.91 13.508V13.008ZM103.19 13.188L102.933 12.7593C102.645 12.9318 102.426 13.1779 102.275 13.4804L102.722 13.704L103.169 13.9276C103.242 13.7821 103.335 13.6842 103.448 13.6167L103.19 13.188ZM102.722 13.704L102.278 13.4738C102.122 13.7748 102.054 14.113 102.054 14.472H102.554H103.054C103.054 14.239 103.098 14.0652 103.166 13.9342L102.722 13.704ZM102.554 14.472H102.054V14.82H102.554H103.054V14.472H102.554ZM102.554 14.82H102.054C102.054 15.207 102.132 15.5697 102.308 15.8895L102.746 15.648L103.184 15.4065C103.105 15.2623 103.054 15.073 103.054 14.82H102.554ZM102.746 15.648L102.315 15.9009C102.501 16.2177 102.764 16.4626 103.093 16.6323L103.322 16.188L103.552 15.7437C103.384 15.6574 103.264 15.5423 103.178 15.3951L102.746 15.648ZM103.322 16.188L103.104 16.6381C103.435 16.7981 103.809 16.868 104.21 16.868V16.368V15.868C103.923 15.868 103.705 15.8179 103.54 15.7379L103.322 16.188ZM104.21 16.368V16.868C104.573 16.868 104.911 16.8184 105.209 16.7014L105.026 16.236L104.843 15.7706C104.693 15.8296 104.487 15.868 104.21 15.868V16.368ZM105.026 16.236L105.217 16.698C105.506 16.5786 105.778 16.4041 106.036 16.1836L105.71 15.804L105.385 15.4244C105.194 15.5879 105.011 15.7014 104.835 15.774L105.026 16.236ZM105.71 15.804L105.35 16.1506L106.55 17.3986L106.91 17.052L107.271 16.7054L106.071 15.4574L105.71 15.804ZM106.91 17.052L106.54 16.7161C106.282 17.001 105.961 17.2228 105.571 17.3803L105.758 17.844L105.945 18.3077C106.467 18.0972 106.915 17.791 107.281 17.3879L106.91 17.052ZM105.758 17.844L105.578 17.3775C105.193 17.5262 104.717 17.608 104.138 17.608V18.108V18.608C104.808 18.608 105.411 18.5138 105.938 18.3105L105.758 17.844ZM109.63 18H109.13V18.5H109.63V18ZM109.63 11.496V10.996H109.13V11.496H109.63ZM111.802 11.496H112.302V10.996H111.802V11.496ZM111.802 13.392L111.373 13.6492L112.302 15.1972V13.392H111.802ZM111.478 12.852L111.012 12.6689L110.922 12.8981L111.049 13.1092L111.478 12.852ZM112.414 11.76L112.656 12.1971L112.662 12.1936L112.414 11.76ZM113.986 11.388H114.486V10.888H113.986V11.388ZM113.986 13.44L113.909 13.9342L114.486 14.0228V13.44H113.986ZM113.71 13.416L113.654 13.9129L113.682 13.916H113.71V13.416ZM112.342 13.788L112.668 14.1669L112.674 14.1617L112.342 13.788ZM111.91 18V18.5H112.41V18H111.91ZM109.63 18H110.13V11.496H109.63H109.13V18H109.63ZM109.63 11.496V11.996H111.802V11.496V10.996H109.63V11.496ZM111.802 11.496H111.302V13.392H111.802H112.302V11.496H111.802ZM111.802 13.392L112.23 13.1348L111.906 12.5948L111.478 12.852L111.049 13.1092L111.373 13.6492L111.802 13.392ZM111.478 12.852L111.943 13.0351C112.095 12.6479 112.332 12.3772 112.656 12.1971L112.414 11.76L112.171 11.3229C111.631 11.6228 111.244 12.0801 111.012 12.6689L111.478 12.852ZM112.414 11.76L112.662 12.1936C113.003 11.9983 113.436 11.888 113.986 11.888V11.388V10.888C113.303 10.888 112.688 11.0257 112.165 11.3264L112.414 11.76ZM113.986 11.388H113.486V13.44H113.986H114.486V11.388H113.986ZM113.986 13.44L114.062 12.9458C113.94 12.9271 113.821 12.916 113.71 12.916V13.416V13.916C113.758 13.916 113.823 13.9209 113.909 13.9342L113.986 13.44ZM113.71 13.416L113.765 12.9191C113.671 12.9086 113.572 12.904 113.47 12.904V13.404V13.904C113.543 13.904 113.604 13.9074 113.654 13.9129L113.71 13.416ZM113.47 13.404V12.904C112.909 12.904 112.407 13.061 112.009 13.4143L112.342 13.788L112.674 14.1617C112.852 14.003 113.102 13.904 113.47 13.904V13.404ZM112.342 13.788L112.015 13.4091C111.572 13.7911 111.41 14.3714 111.41 15.012H111.91H112.41C112.41 14.5166 112.535 14.2809 112.668 14.1669L112.342 13.788ZM111.91 15.012H111.41V18H111.91H112.41V15.012H111.91ZM111.91 18V17.5H109.63V18V18.5H111.91V18ZM118.138 18L117.675 18.1902L117.803 18.5H118.138V18ZM115.462 11.496V10.996H114.715L114.999 11.6862L115.462 11.496ZM117.802 11.496L118.267 11.3131L118.142 10.996H117.802V11.496ZM119.938 16.932V17.432H120.671L120.403 16.7491L119.938 16.932ZM118.762 16.932L118.299 16.7412L118.014 17.432H118.762V16.932ZM121.006 11.496V10.996H120.671L120.543 11.3052L121.006 11.496ZM123.178 11.496L123.64 11.687L123.925 10.996H123.178V11.496ZM120.49 18V18.5H120.824L120.952 18.191L120.49 18ZM118.138 18L118.6 17.8098L115.924 11.3058L115.462 11.496L114.999 11.6862L117.675 18.1902L118.138 18ZM115.462 11.496V11.996H117.802V11.496V10.996H115.462V11.496ZM117.802 11.496L117.336 11.6789L119.472 17.1149L119.938 16.932L120.403 16.7491L118.267 11.3131L117.802 11.496ZM119.938 16.932V16.432H118.762V16.932V17.432H119.938V16.932ZM118.762 16.932L119.224 17.1228L121.468 11.6868L121.006 11.496L120.543 11.3052L118.299 16.7412L118.762 16.932ZM121.006 11.496V11.996H123.178V11.496V10.996H121.006V11.496ZM123.178 11.496L122.716 11.305L120.028 17.809L120.49 18L120.952 18.191L123.64 11.687L123.178 11.496ZM120.49 18V17.5H118.138V18V18.5H120.49V18ZM126.183 17.676L125.952 18.1195L125.96 18.1232L126.183 17.676ZM124.851 16.476L124.424 16.7362L124.429 16.744L124.851 16.476ZM124.839 13.008L124.412 12.7478L124.411 12.7498L124.839 13.008ZM126.123 11.82L126.352 12.2646L126.357 12.2619L126.123 11.82ZM129.711 11.784L129.488 12.2312L129.493 12.2339L129.711 11.784ZM130.971 12.924L131.396 12.6608V12.6608L130.971 12.924ZM131.427 15.036L131.926 15.0743V15.0743L131.427 15.036ZM131.403 15.324V15.824H131.86L131.901 15.3693L131.403 15.324ZM126.255 15.324H125.755V15.824H126.255V15.324ZM126.255 14.124V13.624H125.755V14.124H126.255ZM130.191 14.124L130.372 14.59L130.191 13.624V14.124ZM129.327 14.46L128.827 14.4465L128.807 15.1988L129.508 14.926L129.327 14.46ZM129.159 13.692L128.715 13.9222L128.719 13.9285L128.722 13.9348L129.159 13.692ZM128.679 13.188L128.422 13.6168L128.429 13.6211L128.679 13.188ZM127.251 13.188L127.001 12.7548L126.994 12.7593L127.251 13.188ZM126.783 13.704L127.227 13.9342L127.23 13.9276L126.783 13.704ZM126.807 15.648L126.369 15.8896L126.376 15.9009L126.807 15.648ZM127.383 16.188L127.154 16.6325L127.165 16.6381L127.383 16.188ZM129.087 16.236L129.27 16.7015L129.278 16.698L129.087 16.236ZM129.771 15.804L130.132 15.4574L129.804 15.1171L129.446 15.4244L129.771 15.804ZM130.971 17.052L131.342 17.3879L131.655 17.042L131.332 16.7054L130.971 17.052ZM129.819 17.844L129.999 18.3105L130.006 18.3077L129.819 17.844ZM127.059 10.416L126.706 10.7696L126.712 10.7759L127.059 10.416ZM127.059 8.712L127.406 9.07198L127.413 9.06555L127.059 8.712ZM128.763 8.712L128.41 9.06561L128.416 9.07192L128.763 8.712ZM128.763 10.416L129.11 10.776L129.117 10.7696L128.763 10.416ZM128.199 18.108V17.608C127.494 17.608 126.901 17.476 126.407 17.2288L126.183 17.676L125.96 18.1232C126.617 18.452 127.368 18.608 128.199 18.608V18.108ZM126.183 17.676L126.414 17.2326C125.918 16.9742 125.543 16.6323 125.273 16.208L124.851 16.476L124.429 16.744C124.8 17.3277 125.312 17.7858 125.952 18.1194L126.183 17.676ZM124.851 16.476L125.278 16.2158C125.018 15.7885 124.883 15.2999 124.883 14.736H124.383H123.883C123.883 15.4681 124.061 16.1395 124.424 16.7362L124.851 16.476ZM124.383 14.736H124.883C124.883 14.1695 125.015 13.6846 125.267 13.2662L124.839 13.008L124.411 12.7498C124.055 13.3394 123.883 14.0065 123.883 14.736H124.383ZM124.839 13.008L125.266 13.2682C125.529 12.8364 125.888 12.5034 126.352 12.2646L126.123 11.82L125.894 11.3754C125.27 11.6966 124.773 12.1556 124.412 12.7478L124.839 13.008ZM126.123 11.82L126.357 12.2619C126.822 12.0159 127.352 11.888 127.959 11.888V11.388V10.888C127.206 10.888 126.513 11.0481 125.889 11.3781L126.123 11.82ZM127.959 11.388V11.888C128.528 11.888 129.035 12.0048 129.488 12.2312L129.711 11.784L129.935 11.3368C129.332 11.0352 128.67 10.888 127.959 10.888V11.388ZM129.711 11.784L129.493 12.2339C129.935 12.4481 130.283 12.7629 130.546 13.1872L130.971 12.924L131.396 12.6608C131.035 12.0771 130.544 11.6319 129.929 11.3341L129.711 11.784ZM130.971 12.924L130.546 13.1872C130.8 13.5967 130.939 14.113 130.939 14.76H131.439H131.939C131.939 13.967 131.767 13.2593 131.396 12.6608L130.971 12.924ZM131.439 14.76H130.939C130.939 14.824 130.936 14.9028 130.929 14.9977L131.427 15.036L131.926 15.0743C131.934 14.9612 131.939 14.856 131.939 14.76H131.439ZM131.427 15.036L130.929 14.9977C130.921 15.0997 130.913 15.1934 130.905 15.2787L131.403 15.324L131.901 15.3693C131.909 15.2786 131.918 15.1803 131.926 15.0743L131.427 15.036ZM131.403 15.324V14.824H126.255V15.324V15.824H131.403V15.324ZM126.255 15.324H126.755V14.124H126.255H125.755V15.324H126.255ZM126.255 14.124V14.624H130.191V14.124V13.624H126.255V14.124ZM130.191 14.124L130.01 13.658L129.146 13.994L129.327 14.46L129.508 14.926L130.372 14.59L130.191 14.124ZM129.327 14.46L129.827 14.4735C129.837 14.1058 129.768 13.7577 129.596 13.4492L129.159 13.692L128.722 13.9348C128.791 14.0583 128.833 14.2222 128.827 14.4465L129.327 14.46ZM129.159 13.692L129.603 13.4618C129.448 13.1622 129.221 12.9233 128.929 12.7549L128.679 13.188L128.429 13.6211C128.553 13.6927 128.647 13.7898 128.715 13.9222L129.159 13.692ZM128.679 13.188L128.936 12.7593C128.647 12.5854 128.319 12.508 127.971 12.508V13.008V13.508C128.168 13.508 128.312 13.5506 128.422 13.6167L128.679 13.188ZM127.971 13.008V12.508C127.623 12.508 127.295 12.5855 127.001 12.7549L127.251 13.188L127.501 13.6211C127.623 13.5505 127.775 13.508 127.971 13.508V13.008ZM127.251 13.188L126.994 12.7593C126.706 12.9318 126.487 13.1779 126.336 13.4804L126.783 13.704L127.23 13.9276C127.303 13.7821 127.396 13.6842 127.508 13.6167L127.251 13.188ZM126.783 13.704L126.339 13.4738C126.183 13.7748 126.115 14.113 126.115 14.472H126.615H127.115C127.115 14.239 127.159 14.0652 127.227 13.9342L126.783 13.704ZM126.615 14.472H126.115V14.82H126.615H127.115V14.472H126.615ZM126.615 14.82H126.115C126.115 15.207 126.193 15.5697 126.369 15.8895L126.807 15.648L127.245 15.4065C127.165 15.2623 127.115 15.073 127.115 14.82H126.615ZM126.807 15.648L126.376 15.9009C126.562 16.2177 126.825 16.4626 127.154 16.6323L127.383 16.188L127.613 15.7437C127.445 15.6574 127.325 15.5423 127.239 15.3951L126.807 15.648ZM127.383 16.188L127.165 16.6381C127.496 16.7981 127.87 16.868 128.271 16.868V16.368V15.868C127.984 15.868 127.766 15.8179 127.601 15.7379L127.383 16.188ZM128.271 16.368V16.868C128.634 16.868 128.972 16.8184 129.27 16.7014L129.087 16.236L128.904 15.7706C128.754 15.8296 128.548 15.868 128.271 15.868V16.368ZM129.087 16.236L129.278 16.698C129.567 16.5786 129.839 16.4041 130.097 16.1836L129.771 15.804L129.446 15.4244C129.255 15.5879 129.072 15.7014 128.896 15.774L129.087 16.236ZM129.771 15.804L129.411 16.1506L130.611 17.3986L130.971 17.052L131.332 16.7054L130.132 15.4574L129.771 15.804ZM130.971 17.052L130.601 16.7161C130.342 17.001 130.022 17.2228 129.632 17.3803L129.819 17.844L130.006 18.3077C130.528 18.0972 130.976 17.791 131.342 17.3879L130.971 17.052ZM129.819 17.844L129.639 17.3775C129.254 17.5262 128.778 17.608 128.199 17.608V18.108V18.608C128.868 18.608 129.472 18.5138 129.999 18.3105L129.819 17.844ZM127.911 10.74V10.24C127.682 10.24 127.527 10.1724 127.406 10.0561L127.059 10.416L126.712 10.7759C127.04 11.0916 127.453 11.24 127.911 11.24V10.74ZM127.059 10.416L127.413 10.0624C127.293 9.94305 127.223 9.78754 127.223 9.552H126.723H126.223C126.223 10.0205 126.377 10.441 126.706 10.7696L127.059 10.416ZM126.723 9.552H127.223C127.223 9.32796 127.291 9.18325 127.406 9.07192L127.059 8.712L126.712 8.35208C126.38 8.67275 126.223 9.08804 126.223 9.552H126.723ZM127.059 8.712L127.413 9.06555C127.534 8.94385 127.687 8.876 127.911 8.876V8.376V7.876C127.447 7.876 127.032 8.03215 126.706 8.35845L127.059 8.712ZM127.911 8.376V8.876C128.135 8.876 128.288 8.94385 128.41 9.06555L128.763 8.712L129.117 8.35845C128.79 8.03215 128.375 7.876 127.911 7.876V8.376ZM128.763 8.712L128.416 9.07192C128.532 9.18325 128.599 9.32796 128.599 9.552H129.099H129.599C129.599 9.08804 129.443 8.67275 129.11 8.35208L128.763 8.712ZM129.099 9.552H128.599C128.599 9.78754 128.529 9.94305 128.41 10.0624L128.763 10.416L129.117 10.7696C129.445 10.441 129.599 10.0205 129.599 9.552H129.099ZM128.763 10.416L128.416 10.0561C128.296 10.1724 128.141 10.24 127.911 10.24V10.74V11.24C128.37 11.24 128.783 11.0916 129.11 10.7759L128.763 10.416ZM134.434 17.916L134.315 18.4015L134.317 18.4019L134.434 17.916ZM133.174 17.436L132.717 17.2352L132.54 17.6383L132.917 17.8647L133.174 17.436ZM133.858 15.876L134.117 15.4482L133.63 15.153L133.401 15.6752L133.858 15.876ZM134.926 16.32L134.794 16.8022L134.803 16.8045L134.926 16.32ZM136.918 16.356L136.686 15.9134L136.676 15.9189L136.918 16.356ZM136.93 15.756L136.718 16.2084L136.733 16.2158L136.749 16.222L136.93 15.756ZM136.378 15.612L136.308 16.107L136.31 16.1073L136.378 15.612ZM135.634 15.504L135.562 15.9987V15.9987L135.634 15.504ZM134.806 15.348L134.678 15.8314L134.687 15.8335L134.695 15.8354L134.806 15.348ZM134.05 15.036L133.78 15.4566L133.789 15.4621L133.798 15.4673L134.05 15.036ZM133.51 14.46L133.945 14.2135V14.2135L133.51 14.46ZM133.666 12.444L133.268 12.1424L133.266 12.144L133.666 12.444ZM134.746 11.676L134.928 12.1419L134.935 12.1391L134.746 11.676ZM137.854 11.532L137.753 12.0217L137.763 12.0235L137.854 11.532ZM139.042 11.94L139.5 12.1421L139.682 11.7307L139.292 11.5065L139.042 11.94ZM138.358 13.488L138.109 13.9215L138.591 14.1985L138.816 13.6901L138.358 13.488ZM137.398 13.116L137.289 13.6039L137.3 13.6063L137.398 13.116ZM135.67 13.14L135.429 12.7018L135.42 12.7073L135.67 13.14ZM135.646 13.764L135.412 14.2059L135.423 14.2114L135.434 14.2164L135.646 13.764ZM136.186 13.92L136.099 14.4122L136.108 14.414L136.118 14.4153L136.186 13.92ZM136.942 14.028L136.87 14.5227L136.877 14.5237L136.884 14.5246L136.942 14.028ZM137.758 14.184L137.63 14.6674L137.634 14.6682L137.758 14.184ZM138.514 14.508L138.244 14.9286L138.253 14.9341L138.262 14.9393L138.514 14.508ZM139.066 15.072L138.631 15.3185L138.635 15.3249L139.066 15.072ZM138.898 17.052L138.503 16.7457L138.498 16.752L138.898 17.052ZM137.818 17.82L137.633 17.3558L137.63 17.3569L137.818 17.82ZM136.054 18.108V17.608C135.541 17.608 135.041 17.5486 134.552 17.4301L134.434 17.916L134.317 18.4019C134.884 18.5394 135.463 18.608 136.054 18.608V18.108ZM134.434 17.916L134.554 17.4305C134.063 17.3097 133.695 17.1651 133.432 17.0073L133.174 17.436L132.917 17.8647C133.294 18.0909 133.766 18.2663 134.315 18.4015L134.434 17.916ZM133.174 17.436L133.632 17.6368L134.316 16.0768L133.858 15.876L133.401 15.6752L132.717 17.2352L133.174 17.436ZM133.858 15.876L133.6 16.3038C133.95 16.5157 134.35 16.6802 134.794 16.8022L134.926 16.32L135.059 15.8378C134.687 15.7358 134.375 15.6043 134.117 15.4482L133.858 15.876ZM134.926 16.32L134.803 16.8045C135.248 16.918 135.69 16.976 136.126 16.976V16.476V15.976C135.779 15.976 135.421 15.93 135.05 15.8355L134.926 16.32ZM136.126 16.476V16.976C136.334 16.976 136.522 16.9653 136.687 16.9404C136.846 16.9163 137.015 16.8744 137.161 16.7931L136.918 16.356L136.676 15.9189C136.678 15.9176 136.643 15.9357 136.538 15.9516C136.438 15.9667 136.303 15.976 136.126 15.976V16.476ZM136.918 16.356L137.151 16.7985C137.417 16.6589 137.646 16.405 137.646 16.032H137.146H136.646C136.646 16.0188 136.648 16.0007 136.655 15.9801C136.661 15.9593 136.671 15.9413 136.681 15.9273C136.7 15.9 136.712 15.8997 136.686 15.9135L136.918 16.356ZM137.146 16.032H137.646C137.646 15.8676 137.598 15.7014 137.486 15.5588C137.38 15.4228 137.241 15.3404 137.112 15.29L136.93 15.756L136.749 16.222C136.764 16.2276 136.733 16.2192 136.699 16.1752C136.681 16.1528 136.667 16.1265 136.658 16.0983C136.649 16.0705 136.646 16.0473 136.646 16.032H137.146ZM136.93 15.756L137.143 15.3036C136.943 15.2096 136.704 15.1522 136.447 15.1167L136.378 15.612L136.31 16.1073C136.517 16.1358 136.645 16.1744 136.718 16.2084L136.93 15.756ZM136.378 15.612L136.449 15.117C136.226 15.0851 135.979 15.0492 135.707 15.0093L135.634 15.504L135.562 15.9987C135.834 16.0388 136.083 16.0749 136.308 16.107L136.378 15.612ZM135.634 15.504L135.707 15.0093C135.449 14.9713 135.186 14.9218 134.918 14.8606L134.806 15.348L134.695 15.8354C134.987 15.9022 135.276 15.9567 135.562 15.9987L135.634 15.504ZM134.806 15.348L134.934 14.8646C134.704 14.8037 134.494 14.7167 134.303 14.6047L134.05 15.036L133.798 15.4673C134.07 15.6273 134.365 15.7483 134.678 15.8314L134.806 15.348ZM134.05 15.036L134.321 14.6154C134.167 14.5168 134.043 14.3856 133.945 14.2135L133.51 14.46L133.075 14.7065C133.25 15.0144 133.485 15.2672 133.78 15.4566L134.05 15.036ZM133.51 14.46L133.945 14.2135C133.864 14.0697 133.806 13.8575 133.806 13.548H133.306H132.806C132.806 13.9745 132.885 14.3703 133.075 14.7065L133.51 14.46ZM133.306 13.548H133.806C133.806 13.2355 133.894 12.9738 134.066 12.744L133.666 12.444L133.266 12.144C132.959 12.5542 132.806 13.0285 132.806 13.548H133.306ZM133.666 12.444L134.065 12.7456C134.246 12.5068 134.522 12.3 134.928 12.1419L134.746 11.676L134.565 11.2101C134.027 11.42 133.583 11.7252 133.268 12.1424L133.666 12.444ZM134.746 11.676L134.935 12.1391C135.331 11.9781 135.839 11.888 136.474 11.888V11.388V10.888C135.75 10.888 135.106 10.9899 134.558 11.2129L134.746 11.676ZM136.474 11.388V11.888C136.895 11.888 137.321 11.9323 137.753 12.0216L137.854 11.532L137.956 11.0424C137.46 10.9397 136.966 10.888 136.474 10.888V11.388ZM137.854 11.532L137.763 12.0235C138.195 12.1041 138.534 12.2246 138.793 12.3735L139.042 11.94L139.292 11.5065C138.911 11.2874 138.458 11.1359 137.946 11.0405L137.854 11.532ZM139.042 11.94L138.585 11.7379L137.901 13.2859L138.358 13.488L138.816 13.6901L139.5 12.1421L139.042 11.94ZM138.358 13.488L138.608 13.0545C138.247 12.847 137.876 12.7016 137.496 12.6257L137.398 13.116L137.3 13.6063C137.561 13.6584 137.83 13.761 138.109 13.9215L138.358 13.488ZM137.398 13.116L137.508 12.6282C137.157 12.5492 136.816 12.508 136.486 12.508V13.008V13.508C136.733 13.508 137 13.5388 137.289 13.6038L137.398 13.116ZM136.486 13.008V12.508C136.092 12.508 135.708 12.5485 135.429 12.7019L135.67 13.14L135.911 13.5781C135.952 13.5555 136.113 13.508 136.486 13.508V13.008ZM135.67 13.14L135.42 12.7073C135.178 12.8472 134.942 13.0937 134.942 13.464H135.442H135.942C135.942 13.4823 135.94 13.5034 135.933 13.525C135.926 13.5465 135.916 13.5632 135.908 13.5747C135.893 13.5961 135.888 13.5918 135.921 13.5727L135.67 13.14ZM135.442 13.464H134.942C134.942 13.8182 135.153 14.0683 135.412 14.2059L135.646 13.764L135.88 13.3221C135.865 13.3141 135.884 13.3205 135.907 13.3538C135.918 13.3706 135.928 13.3903 135.934 13.4118C135.941 13.4331 135.942 13.4513 135.942 13.464H135.442ZM135.646 13.764L135.434 14.2164C135.624 14.3061 135.851 14.368 136.099 14.4122L136.186 13.92L136.274 13.4278C136.074 13.392 135.941 13.3499 135.859 13.3116L135.646 13.764ZM136.186 13.92L136.118 14.4153C136.348 14.4471 136.599 14.4829 136.87 14.5227L136.942 14.028L137.015 13.5333C136.742 13.4931 136.488 13.4569 136.255 13.4247L136.186 13.92ZM136.942 14.028L136.884 14.5246C137.132 14.5537 137.381 14.6012 137.63 14.6674L137.758 14.184L137.886 13.7006C137.592 13.6228 137.297 13.5663 137.001 13.5314L136.942 14.028ZM137.758 14.184L137.634 14.6682C137.867 14.7281 138.069 14.8158 138.244 14.9286L138.514 14.508L138.785 14.0874C138.512 13.9122 138.21 13.7839 137.883 13.6998L137.758 14.184ZM138.514 14.508L138.262 14.9393C138.416 15.0297 138.538 15.153 138.631 15.3185L139.066 15.072L139.501 14.8255C139.323 14.511 139.077 14.2583 138.767 14.0767L138.514 14.508ZM139.066 15.072L138.635 15.3249C138.713 15.457 138.77 15.6615 138.77 15.972H139.27H139.77C139.77 15.5465 139.692 15.151 139.498 14.8191L139.066 15.072ZM139.27 15.972H138.77C138.77 16.2597 138.684 16.5122 138.503 16.7457L138.898 17.052L139.294 17.3583C139.609 16.9518 139.77 16.4843 139.77 15.972H139.27ZM138.898 17.052L138.498 16.752C138.327 16.9801 138.052 17.188 137.633 17.3558L137.818 17.82L138.004 18.2842C138.545 18.068 138.99 17.7639 139.298 17.352L138.898 17.052ZM137.818 17.82L137.63 17.3569C137.236 17.5171 136.717 17.608 136.054 17.608V18.108V18.608C136.8 18.608 137.457 18.5069 138.007 18.2831L137.818 17.82Z" fill="black" mask="url(#path-2-outside-1_0_1)"/>
</g>
<defs>
<filter id="filter0_g_0_1" x="83.66" y="0" width="63" height="29" filterUnits="userSpaceOnUse" color-interpolation-filters="sRGB">
<feFlood flood-opacity="0" result="BackgroundImageFix"/>
<feBlend mode="normal" in="SourceGraphic" in2="BackgroundImageFix" result="shape"/>
<feTurbulence type="fractalNoise" baseFrequency="0.99900001287460327 0.99900001287460327" numOctaves="3" seed="789" />
<feDisplacementMap in="shape" scale="8" xChannelSelector="R" yChannelSelector="G" result="displacedImage" width="100%" height="100%" />
<feMerge result="effect1_texture_0_1">
<feMergeNode in="displacedImage"/>
</feMerge>
</filter>
<filter id="filter1_n_0_1" x="0" y="7.85201" width="139.77" height="13.084" filterUnits="userSpaceOnUse" color-interpolation-filters="sRGB">
<feFlood flood-opacity="0" result="BackgroundImageFix"/>
<feBlend mode="normal" in="SourceGraphic" in2="BackgroundImageFix" result="shape"/>
<feTurbulence type="fractalNoise" baseFrequency="1 1" stitchTiles="stitch" numOctaves="3" result="noise" seed="5528" />
<feColorMatrix in="noise" type="luminanceToAlpha" result="alphaNoise" />
<feComponentTransfer in="alphaNoise" result="coloredNoise1">
<feFuncA type="discrete" tableValues="0 0 0 0 0 0 0 0 0 0 0 0 0 0 1 1 1 1 1 1 1 1 1 1 1 1 1 1 1 1 1 1 1 1 1 0 0 0 0 0 0 0 0 0 0 0 0 0 0 0 0 0 0 0 0 0 0 0 0 0 0 0 0 0 0 0 0 0 0 0 0 0 0 0 0 0 0 0 0 0 0 0 0 0 0 0 0 0 0 0 0 0 0 0 0 0 0 0 0 0 "/>
</feComponentTransfer>
<feComposite operator="in" in2="shape" in="coloredNoise1" result="noise1Clipped" />
<feComponentTransfer in="alphaNoise" result="coloredNoise2">
<feFuncA type="discrete" tableValues="0 0 0 0 0 0 0 0 0 0 0 0 0 0 0 0 0 0 0 0 0 0 0 0 0 0 0 0 0 0 0 0 0 0 0 0 0 0 0 0 0 0 0 0 0 0 0 0 0 0 0 0 0 0 0 0 0 0 0 0 0 0 0 0 0 1 1 1 1 1 1 1 1 1 1 1 1 1 1 1 1 1 1 1 1 1 0 0 0 0 0 0 0 0 0 0 0 0 0 0 "/>
</feComponentTransfer>
<feComposite operator="in" in2="shape" in="coloredNoise2" result="noise2Clipped" />
<feFlood flood-color="#000000" result="color1Flood" />
<feComposite operator="in" in2="noise1Clipped" in="color1Flood" result="color1" />
<feFlood flood-color="#000000" result="color2Flood" />
<feComposite operator="in" in2="noise2Clipped" in="color2Flood" result="color2" />
<feMerge result="effect1_noise_0_1">
<feMergeNode in="shape" />
<feMergeNode in="color1" />
<feMergeNode in="color2" />
</feMerge>
</filter>
</defs>
</svg>
